<?xml version="1.0" encoding="UTF-8" standalone="no"?>
<svg
   xmlns:dc="http://purl.org/dc/elements/1.1/"
   xmlns:cc="http://creativecommons.org/ns#"
   xmlns:rdf="http://www.w3.org/1999/02/22-rdf-syntax-ns#"
   xmlns:svg="http://www.w3.org/2000/svg"
   xmlns="http://www.w3.org/2000/svg"
   xmlns:sodipodi="http://sodipodi.sourceforge.net/DTD/sodipodi-0.dtd"
   xmlns:inkscape="http://www.inkscape.org/namespaces/inkscape"
   width="1706.5"
   height="674.97876"
   viewBox="0 0 1365.2 539.98301"
   version="1.1"
   id="svg3298"
   inkscape:version="0.48.3.1 r9886"
   sodipodi:docname="dome-banner-large-development.svg"
   inkscape:export-filename="/home/mstaples/Downloads/dome-logo.png"
   inkscape:export-xdpi="90"
   inkscape:export-ydpi="90">
  <metadata
     id="metadata3330">
    <rdf:RDF>
      <cc:Work
         rdf:about="">
        <dc:format>image/svg+xml</dc:format>
        <dc:type
           rdf:resource="http://purl.org/dc/dcmitype/StillImage" />
        <dc:title></dc:title>
      </cc:Work>
    </rdf:RDF>
  </metadata>
  <defs
     id="defs3328" />
  <sodipodi:namedview
     pagecolor="#ffffff"
     bordercolor="#666666"
     borderopacity="1"
     objecttolerance="10"
     gridtolerance="10"
     guidetolerance="10"
     inkscape:pageopacity="0"
     inkscape:pageshadow="2"
     inkscape:window-width="1580"
     inkscape:window-height="835"
     id="namedview3326"
     showgrid="false"
     fit-margin-top="50"
     fit-margin-left="50"
     fit-margin-right="50"
     fit-margin-bottom="50"
     inkscape:zoom="0.73"
     inkscape:cx="829.41884"
     inkscape:cy="452.29212"
     inkscape:window-x="0"
     inkscape:window-y="27"
     inkscape:window-maximized="0"
     inkscape:current-layer="svg3298" />
  <path
     d="m 40,39.999999 1285.2,0 0,459.983021 -1285.2,0 0,-459.983021 z"
     id="path3300"
     inkscape:connector-curvature="0"
     style="fill:#ffffff" />
  <path
     sodipodi:open="true"
     sodipodi:end="6.2651577"
     sodipodi:start="0"
     transform="matrix(0.91612755,0,0,0.92499122,-299.92602,-190.56551)"
     d="m 1009.5891,479.53766 a 224.65753,219.17809 0 1 1 -0.037,-3.95104"
     sodipodi:ry="219.17809"
     sodipodi:rx="224.65753"
     sodipodi:cy="479.53766"
     sodipodi:cx="784.93152"
     id="path4493"
     style="fill:#00a0b0;fill-opacity:1;stroke:none"
     sodipodi:type="arc"
     inkscape:transform-center-x="389.82644"
     inkscape:transform-center-y="-5.8634092" />
  <path
     style="fill:#edc951;fill-opacity:1;stroke:none"
     d="m 389.25053,447.42555 765.13037,-2.3379 5.619,2.92238 -6.5555,2.3379 -764.19387,3.50685 -8.42861,-2.92237 z"
     id="path4388-0"
     inkscape:connector-curvature="0" />
  <path
     sodipodi:type="arc"
     style="fill:#edc951;fill-opacity:1;stroke:none"
     id="path4442"
     sodipodi:cx="784.93152"
     sodipodi:cy="479.53766"
     sodipodi:rx="224.65753"
     sodipodi:ry="219.17809"
     d="m 1009.5891,479.53766 a 224.65753,219.17809 0 1 1 -0.037,-3.95104"
     transform="matrix(0.9,0,0,0.9,-289.45205,-173.98116)"
     sodipodi:start="0"
     sodipodi:end="6.2651577"
     sodipodi:open="true" />
  <path
     style="fill:#00a0b0;fill-opacity:1"
     inkscape:connector-curvature="0"
     id="path4495"
     d="m 239.35803,105.40836 c 0.81461,-2.70823 3.87094,-3.43692 6.34453,-4.06234 2.37847,0.61394 5.31588,1.23936 6.23751,3.78119 1.66493,3.97629 -1.93247,7.57961 -1.24868,11.5731 0.49948,3.4484 2.2655,6.55827 3.312,9.85748 2.06335,6.24844 4.60828,12.33623 6.55864,18.62481 2.09302,-0.54509 4.18608,-1.09589 6.26722,-1.69264 0,4.69354 0,9.39275 0.006,14.08626 2.09898,0.91805 4.18017,1.88772 6.24942,2.87462 -2.21791,2.24349 -4.50124,4.42956 -6.78456,6.61565 0.0297,5.87548 0.0177,11.75098 0.006,17.63221 4.7034,2.92053 9.40086,5.85254 14.15777,8.69847 -1.01083,5.64024 -1.63516,11.33783 -2.64601,16.98382 2.87794,0.16065 6.0294,0.28113 8.31272,2.22627 7.75379,5.74348 16.00112,10.87306 23.38029,17.0756 3.94824,3.2648 8.05109,6.346 11.99934,9.61078 4.3407,4.05659 8.65165,8.15336 12.60585,12.56572 4.3407,3.93041 7.49811,8.83045 11.24417,13.25426 2.74713,3.62629 5.73805,7.06896 8.4376,10.72966 2.76496,4.14267 4.99479,8.59519 7.53972,12.86409 2.94931,5.33039 6.23753,10.49441 8.82412,16.00264 3.34767,7.70012 6.68941,15.40022 10.07872,23.07735 2.05738,5.1755 3.32986,10.59769 5.0126,15.89366 1.07626,3.8902 2.8185,7.69435 2.80065,11.78539 0.006,3.08692 -0.0534,6.17384 -0.0238,9.2665 2.16441,0.0516 4.33475,0.086 6.49917,0.18935 0.0772,2.99513 0.15456,6.00744 -0.19624,8.9911 -0.4757,3.76975 -0.20216,7.57387 -0.38056,11.35506 1.30815,0.84921 2.56874,1.76151 3.87095,2.63367 -1.86114,2.45002 -3.75797,4.8771 -5.76183,7.22383 0,11.65344 0.006,23.30687 0,34.96602 -0.0177,3.75825 0.1784,7.53369 -0.30919,11.27475 -0.24975,1.69262 -0.10703,3.42544 0.44001,5.05496 1.11194,3.46561 2.07521,6.9714 2.99092,10.48866 -4.84612,0.086 -9.70413,-0.17786 -14.53836,0.21229 -5.91048,0.40739 -11.83877,0.26968 -17.76116,0.28688 -80.27311,0 -160.54623,0.005 -240.81932,0 -3.99584,-0.0402 -8.00951,0.17789 -11.98747,-0.24096 -4.59639,-0.49346 -9.2225,-0.14919 -13.830759,-0.26395 0.874091,-3.35084 1.771961,-6.70172 2.848206,-10.00095 0.552988,-1.68118 0.868141,-3.44839 0.624351,-5.20415 -0.558939,-4.23448 -0.32109,-8.50339 -0.350832,-12.74933 -0.0061,-11.27476 -0.0061,-22.54947 0,-33.82422 -2.003846,-2.34673 -3.900669,-4.77381 -5.767766,-7.21812 1.296264,-0.88359 2.58063,-1.79017 3.894733,-2.65086 -0.214056,-3.77544 0.07138,-7.56812 -0.404342,-11.32635 -0.350822,-2.99514 -0.27352,-6.00747 -0.190277,-9.00833 2.164392,-0.10327 4.328796,-0.13771 6.499146,-0.18935 0.0654,-3.66069 -0.14269,-7.32714 0.0535,-10.98207 0.41029,-3.64925 1.92656,-7.06322 2.88389,-10.59194 1.92061,-6.08205 3.27633,-12.37067 6.07102,-18.16582 3.15741,-7.10336 6.17805,-14.26411 9.35926,-21.35601 3.28229,-6.5181 7.177,-12.73213 10.72093,-19.11827 2.12275,-3.60906 3.95417,-7.40175 6.624,-10.67799 4.98288,-6.12223 9.78144,-12.37639 14.76431,-18.49288 6.16617,-6.27137 12.00529,-12.91572 18.95634,-18.42399 6.42186,-4.88284 12.39181,-10.32225 19.105,-14.84363 4.69748,-3.28201 9.3533,-6.61565 14.03296,-9.92635 2.15843,-1.61807 5.04233,-1.56642 7.63484,-1.7787 -0.99299,-5.64026 -1.65897,-11.3264 -2.65197,-16.96663 4.75097,-2.89183 9.47221,-5.8181 14.15779,-8.80176 0,-5.84678 -0.0177,-11.69356 0.0119,-17.53463 -2.27737,-2.1746 -4.54879,-4.3607 -6.76078,-6.59845 2.06927,-0.98689 4.13854,-1.96232 6.22564,-2.89757 0.006,-4.70497 0,-9.40997 0.0177,-14.11494 1.99196,0.59675 3.99583,1.1533 5.99968,1.73284 2.73523,-6.86815 5.10774,-13.8625 7.61109,-20.81093 0.96328,-2.69677 2.3725,-5.31893 2.55684,-8.20503 0.38055,-3.71807 -2.7709,-7.02303 -1.41518,-10.7698 z"
     inkscape:transform-center-x="620.90291"
     inkscape:transform-center-y="22.740174" />
  <path
     d="m 240.35016,107.16125 c 0.78213,-2.69463 3.71653,-3.41966 6.09145,-4.04194 2.28358,0.61086 5.10381,1.23313 5.98869,3.7622 1.59851,3.95631 -1.85541,7.54153 -1.19888,11.51496 0.47956,3.43108 2.17512,6.52533 3.17989,9.80798 1.98101,6.21705 4.42444,12.27425 6.29698,18.53126 2.00955,-0.54235 4.0191,-1.09041 6.01723,-1.68414 0,4.66993 0,9.34556 0.006,14.01548 2.01526,0.91344 4.0134,1.87825 6.00011,2.86019 -2.12944,2.2322 -4.32167,4.40731 -6.51391,6.58242 0.0285,5.84597 0.0171,11.69194 0.006,17.54362 4.51578,2.90586 9.02585,5.82313 13.59301,8.65477 -0.97052,5.6119 -1.56996,11.28089 -2.54048,16.8985 2.76313,0.15985 5.78888,0.27974 7.98112,2.21508 7.44447,5.71466 15.36279,10.81847 22.4476,16.98984 3.79075,3.2484 7.72993,6.31411 11.52067,9.5625 4.16754,4.03623 8.30653,8.11242 12.10298,12.50261 4.16754,3.91063 7.19899,8.78608 10.79563,13.18768 2.63754,3.60806 5.50914,7.03343 8.10101,10.67575 2.65466,4.12186 4.79552,8.55201 7.23895,12.79947 2.83164,5.30362 5.98869,10.44168 8.47209,15.92227 3.21414,7.66142 6.42257,15.32283 9.67667,22.96141 1.9753,5.14948 3.19702,10.54444 4.81265,15.8138 1.03332,3.87067 2.70605,7.65571 2.68892,11.72619 0.006,3.07142 -0.0514,6.14284 -0.0228,9.21996 2.07806,0.0514 4.16183,0.0856 6.23989,0.1884 0.0742,2.98007 0.14843,5.97727 -0.1884,8.94593 -0.45671,3.75078 -0.1941,7.53582 -0.36537,11.29802 1.25597,0.84492 2.46627,1.75265 3.71653,2.62041 -1.7869,2.43772 -3.60806,4.85261 -5.53198,7.18757 0,11.59489 0.006,23.18977 0,34.79036 -0.0171,3.73937 0.17127,7.49586 -0.29686,11.2181 -0.23978,1.68414 -0.10276,3.40824 0.42246,5.02959 1.06758,3.4482 1.99243,6.93637 2.87161,10.43596 -4.6528,0.0856 -9.31702,-0.17698 -13.9584,0.21123 -5.6747,0.40534 -11.36652,0.26832 -17.05264,0.28545 -77.07087,0 -154.14175,0.006 -231.21262,0 -3.83642,-0.04 -7.68996,0.17698 -11.50925,-0.23977 -4.41303,-0.49097 -8.85459,-0.14844 -13.27903,-0.26262 0.83922,-3.33403 1.70127,-6.66805 2.73459,-9.9507 0.53093,-1.67273 0.83351,-3.43108 0.59944,-5.17802 -0.53664,-4.21321 -0.30828,-8.46067 -0.33683,-12.6853 -0.006,-11.21809 -0.006,-22.43619 0,-33.65428 -1.92392,-2.33496 -3.74507,-4.74985 -5.53768,-7.18186 1.24455,-0.87918 2.47768,-1.7812 3.73936,-2.63754 -0.20552,-3.75649 0.0685,-7.53011 -0.38821,-11.26947 -0.33683,-2.98008 -0.26261,-5.97728 -0.18269,-8.96306 2.07806,-0.10276 4.15612,-0.13702 6.23989,-0.1884 0.0628,-3.64231 -0.13701,-7.29033 0.0514,-10.92693 0.39392,-3.6309 1.8497,-7.02773 2.76884,-10.53873 1.84399,-6.05149 3.14563,-12.30851 5.82884,-18.07455 3.03145,-7.06768 5.9316,-14.19246 8.98589,-21.24872 3.15135,-6.48537 6.89071,-12.66817 10.29325,-19.02224 2.03809,-3.59093 3.79645,-7.36455 6.35977,-10.62436 4.7841,-6.09145 9.39123,-12.31421 14.17533,-18.39996 5.92019,-6.23988 11.52638,-12.85085 18.20015,-18.33145 6.16567,-4.85832 11.89746,-10.2704 18.34286,-14.76906 4.51008,-3.26552 8.98019,-6.58242 13.47313,-9.87649 2.07235,-1.60992 4.8412,-1.55854 7.3303,-1.76977 -0.95339,-5.61191 -1.5928,-11.26948 -2.54619,-16.88138 4.56145,-2.87731 9.09436,-5.78888 13.59302,-8.75754 0,-5.81742 -0.0171,-11.63484 0.0114,-17.44656 -2.18653,-2.16369 -4.36735,-4.3388 -6.49108,-6.56529 1.98672,-0.98194 3.97344,-1.95247 5.97728,-2.88303 0.006,-4.68134 0,-9.36268 0.0171,-14.04402 1.9125,0.59373 3.83642,1.1475 5.76034,1.7241 2.62612,-6.83361 4.90399,-13.79283 7.30746,-20.70637 0.92485,-2.68321 2.27787,-5.2922 2.45485,-8.16381 0.36537,-3.6994 -2.66037,-6.98775 -1.35873,-10.7157 z"
     id="path3302"
     inkscape:connector-curvature="0"
     style="fill:#eb6841;fill-opacity:1" />
  <path
     d="m 247.77751,119.25852 c 3.2541,13.04496 5.83455,26.24977 8.81462,39.36324 -6.76511,0.0457 -13.5188,-0.5081 -20.28391,-0.47956 3.80216,-12.97074 7.72421,-25.90152 11.46929,-38.88368 z"
     id="path3304"
     inkscape:connector-curvature="0"
     style="fill:#cc333f;fill-opacity:1" />
  <path
     d="m 234.37288,172.11201 c 8.85459,-0.0114 17.70347,-0.0114 26.55806,0 0.0228,5.81743 -0.0114,11.62914 0.0285,17.44086 1.86112,2.15798 4.28172,3.94488 5.56623,6.53104 0.58802,4.38448 0.4453,8.83746 0.73075,13.25048 -12.71384,-0.22836 -25.43339,-0.33683 -38.14723,-0.47955 -1.02761,-4.82407 -1.95246,-9.67097 -2.96866,-14.49503 2.5462,-1.77549 5.0981,-3.55097 7.69567,-5.25224 0.30829,-5.65757 0.34254,-11.32657 0.53664,-16.99556 z"
     id="path3306"
     inkscape:connector-curvature="0"
     style="fill:#cc333f;fill-opacity:1" />
  <path
     d="m 236.24494,217.01245 c 4.20749,0.15985 8.41499,-0.23978 12.62249,-0.11418 2.89444,0.0799 5.79459,0.21694 8.68903,0.0856 3.98485,5.73179 7.95257,11.48071 11.83466,17.28671 2.26645,3.36829 3.97343,7.06198 6.02295,10.56157 1.87824,3.27123 4.34451,6.23988 5.56052,9.85936 1.83257,5.34929 3.72223,10.68145 5.64615,16.0022 1.94675,5.45205 4.23605,10.80705 5.37213,16.51029 3.29406,12.70813 5.97727,25.58182 8.06675,38.54686 1.29022,6.79365 1.67272,13.70719 2.49481,20.56365 0.63369,5.31503 0.28545,10.67003 0.36537,16.0079 -37.33655,0.006 -74.6674,0.0114 -112.00396,0 0.0742,-5.02959 -0.25119,-10.07059 0.30829,-15.07734 0.79354,-7.19329 1.23884,-14.43224 2.6147,-21.54559 2.26074,-14.59209 5.49772,-29.01862 9.25992,-43.29671 2.11802,-6.68518 4.78981,-13.17626 7.05056,-19.81578 1.7869,-4.62425 2.81451,-9.631 5.75462,-13.72432 3.4425,-4.89257 5.73179,-10.47022 9.10008,-15.40847 3.71082,-5.50914 7.50156,-10.95548 11.24093,-16.44178 z"
     id="path3308"
     inkscape:connector-curvature="0"
     style="fill:#cc333f;fill-opacity:1" />
  <path
     d="m 210.32106,221.55155 c 2.16941,-1.01619 4.63567,-0.62798 6.95351,-0.61657 -3.83642,6.30269 -7.68425,12.59396 -11.70907,18.77675 -2.40917,3.66515 -4.21891,7.66713 -6.19992,11.56634 -2.94582,5.69754 -4.87545,11.83466 -7.27891,17.76056 -2.51765,6.12 -4.15612,12.53686 -6.22276,18.811 -2.30642,6.5653 -3.4425,13.44458 -5.05814,20.19257 -1.62705,6.58813 -2.4891,13.33611 -3.825,19.98704 -1.11895,5.42922 -1.48432,10.9669 -2.12373,16.45892 -0.56518,5.07526 -0.96481,10.17906 -0.81067,15.29428 -18.54268,1.3987 -37.07965,2.80881 -55.61091,4.31597 1.18746,-6.08003 1.83257,-12.25712 3.20843,-18.29719 2.05522,-7.95828 4.03623,-15.96224 7.12477,-23.59511 2.28929,-7.19328 5.93731,-13.81567 9.06582,-20.64928 2.86019,-5.26366 5.94873,-10.40172 8.93451,-15.59116 3.12851,-5.18373 5.84597,-10.67003 9.87649,-15.2429 5.02388,-6.6966 10.57869,-12.97645 16.53313,-18.86238 3.22556,-3.79646 7.11907,-6.92496 10.55586,-10.52161 4.03623,-3.79645 8.09529,-7.61003 12.66816,-10.77279 4.35023,-3.41966 8.90597,-6.62239 13.91843,-9.01444 z"
     id="path3310"
     inkscape:connector-curvature="0"
     style="fill:#cc333f;fill-opacity:1" />
  <path
     d="m 276.5906,220.93498 c 2.09518,-0.0114 4.29313,-0.33682 6.31981,0.35967 6.87929,2.9972 12.64533,7.88406 18.61689,12.32563 3.825,3.17989 7.47873,6.571 10.9612,10.12197 2.1066,2.07235 4.45869,3.8878 6.39402,6.13713 2.91157,3.37399 6.26843,6.32552 9.16287,9.71093 3.83642,4.00198 7.00489,8.55772 10.53302,12.82231 3.27694,3.9563 5.50343,8.61481 8.18093,12.97074 4.21321,7.44448 8.90597,14.64347 12.25713,22.53895 3.49959,6.47966 5.77746,13.50167 8.30652,20.39238 1.92392,5.33216 3.04288,10.9041 4.63567,16.33332 1.5243,6.34835 2.1637,12.86227 3.46534,19.2563 -7.80985,-0.22836 -15.56832,-1.19317 -23.36675,-1.63276 -10.73854,-0.86205 -21.4885,-1.70698 -32.23846,-2.48911 0.26261,-7.2047 -0.73645,-14.35801 -1.4672,-21.50562 -0.62798,-6.45112 -1.98672,-12.79377 -3.07713,-19.17067 -1.39298,-8.24944 -3.47675,-16.36186 -5.24652,-24.53137 -1.58709,-5.66899 -3.51101,-11.23522 -5.20657,-16.86996 -1.6613,-5.70325 -4.10474,-11.12675 -6.14283,-16.69869 -2.31213,-6.51392 -5.54911,-12.65104 -8.81463,-18.73108 -4.44727,-7.09623 -8.96305,-14.1582 -13.27331,-21.34007 z"
     id="path3312"
     inkscape:connector-curvature="0"
     style="fill:#cc333f;fill-opacity:1" />
  <path
     d="m 204.21819,388.65833 c 8.55772,-0.0856 17.13257,0.23978 25.68458,-0.34254 10.84131,-0.16556 21.68832,-0.10276 32.53533,-0.0514 12.10869,0.65653 24.24022,0.37108 36.36032,0.3197 0.52523,1.53571 1.1418,3.09426 1.05616,4.76127 -0.0913,4.55575 -0.0285,9.1172 -0.0971,13.67865 -0.92485,12.32563 -0.33683,24.69694 -0.49668,37.0454 -3.12851,-0.006 -6.25701,-0.10276 -9.3741,-0.27973 -12.9422,-0.42818 -25.90723,0.40533 -38.8323,-0.56519 -5.33788,-0.27974 -10.67575,0.15414 -16.0022,0.4453 -9.13433,0.0514 -18.26865,-0.006 -27.40869,0.0114 -4.32167,0.0685 -8.63764,0.43389 -12.96503,0.38821 -0.15414,-11.57775 0.39963,-23.17835 -0.46243,-34.73898 -0.10847,-5.52627 -0.0628,-11.05824 -0.12559,-16.58451 0.10847,-1.29593 -0.10276,-3.02004 1.15892,-3.83071 2.95152,-0.57089 5.98298,-0.1941 8.96876,-0.2569 z"
     id="path3314"
     inkscape:connector-curvature="0"
     style="fill:#cc333f;fill-opacity:1" />
  <path
     d="m 157.59317,393.0999 c 4.66421,-0.21123 9.31701,-0.61086 13.98122,-0.79355 0.0114,17.89186 0.0114,35.77801 0,53.66987 -18.18872,0.0114 -36.37745,0.0114 -54.56046,0 -0.0514,-4.08761 0.0628,-8.16951 -0.0343,-12.25141 -0.87918,-12.61108 -0.28545,-25.26212 -0.46813,-37.89032 13.66723,-1.30165 27.39727,-1.68985 41.08163,-2.73459 z"
     id="path3316"
     inkscape:connector-curvature="0"
     style="fill:#cc333f;fill-opacity:1" />
  <path
     d="m 320.48674,392.30064 c 15.52264,0.91344 31.04529,1.87254 46.56793,2.83164 2.82023,0.10277 5.63474,0.37679 8.44355,0.67937 -0.0742,10.74996 0.11988,21.49992 -0.10847,32.24417 -0.47956,5.96015 -0.43959,11.93742 -0.33683,17.9147 -18.18873,0.0228 -36.38316,0.0114 -54.57189,0.006 -0.0114,-17.89186 -0.0114,-35.78372 0.006,-53.67558 z"
     id="path3318"
     inkscape:connector-curvature="0"
     style="fill:#cc333f;fill-opacity:1" />
  <path
     d="m 244.31788,392.89437 c 4.55004,-0.82779 9.10007,0.78784 13.14772,2.7403 6.34836,3.32261 11.40078,9.4997 12.6225,16.64731 0.62227,4.97821 0.451,10.30466 -1.99243,14.81473 -3.92776,7.82698 -12.31421,13.13631 -21.01466,13.62728 -6.33122,-0.21123 -12.47406,-3.11138 -16.92133,-7.57578 -4.31597,-4.23034 -6.8222,-10.23616 -6.81649,-16.27052 -0.10277,-5.82884 2.15227,-11.64056 6.13141,-15.89944 3.80787,-4.33309 9.2428,-6.97634 14.84328,-8.08388 z"
     id="path3320"
     inkscape:connector-curvature="0"
     style="fill:#edc752" />
  <path
     d="m 139.1247,399.40258 c 2.78026,-0.64511 5.84597,-0.0856 8.10672,1.69556 4.36164,3.24269 6.46824,8.6091 7.38167,13.79854 0.83922,5.86881 0.47956,12.02306 -1.8497,17.5322 -1.24455,3.03716 -3.2541,5.82313 -5.97727,7.70138 -3.33403,2.32925 -8.18664,2.15798 -11.33227,-0.42818 -4.3331,-3.33402 -6.42258,-8.75753 -7.29034,-13.99835 -0.87918,-6.70231 -0.26832,-13.86705 3.19131,-19.81007 1.75265,-2.92869 4.36164,-5.63474 7.76988,-6.49108 z"
     id="path3322"
     inkscape:connector-curvature="0"
     style="fill:#edc752" />
  <path
     d="m 345.65752,399.37975 c 2.78596,-0.61086 5.83455,-0.0457 8.08387,1.74694 4.3331,3.24839 6.41687,8.59768 7.34172,13.76999 0.93627,6.94209 0.33112,14.41511 -3.3797,20.51798 -2.14657,3.42537 -5.69183,6.54246 -9.97925,6.34265 -3.95631,0.0571 -7.25037,-2.74601 -9.33985,-5.86881 -2.96866,-4.60141 -4.21892,-10.16193 -4.08761,-15.60257 -0.10847,-5.14947 1.10754,-10.36746 3.77362,-14.7919 1.74123,-2.79167 4.30455,-5.31503 7.5872,-6.11428 z"
     id="path3324"
     inkscape:connector-curvature="0"
     style="fill:#edc752" />
  <path
     style="fill:#cc333f;fill-opacity:1;stroke:none"
     d="m 387.07955,430.41759 c -0.0232,7.45629 -1.08825,19.07963 -0.0697,22.36889 l 771.62025,-0.34046 -0.9777,-22.11154 z"
     id="path4459"
     inkscape:connector-curvature="0"
     sodipodi:nodetypes="ccccc" />
  <path
     style="fill:#eb6841;fill-opacity:1;stroke:none"
     d="m 364.14669,446.44322 795.77921,-0.51509 4.464,9.78326 -800.85952,1.25923 z"
     id="path4457"
     inkscape:connector-curvature="0"
     sodipodi:nodetypes="ccccc" />
  <flowRoot
     xml:space="preserve"
     id="flowRoot4523"
     style="font-size:40px;font-style:normal;font-weight:normal;line-height:125%;letter-spacing:0px;word-spacing:0px;fill:#000000;fill-opacity:1;stroke:none;font-family:Sans"
     transform="matrix(0.8,0,0,0.8,0,14.246574)"><flowRegion
       id="flowRegion4525"><rect
         id="rect4527"
         width="754.79449"
         height="143.83562"
         x="557.53424"
         y="357.61987" /></flowRegion><flowPara
       id="flowPara4529"
       style="font-size:144px;font-style:normal;font-variant:normal;font-weight:bold;font-stretch:normal;text-align:start;line-height:125%;writing-mode:lr-tb;text-anchor:start;font-family:Almendra;-inkscape-font-specification:Almendra Bold">Risks and Challenges</flowPara></flowRoot>  <flowRoot
     xml:space="preserve"
     id="flowRoot4531"
     style="font-size:40px;font-style:normal;font-weight:normal;line-height:125%;letter-spacing:0px;word-spacing:0px;fill:#000000;fill-opacity:1;stroke:none;font-family:Sans"
     transform="matrix(0.8,0,0,0.8,0,14.246574)"><flowRegion
       id="flowRegion4533"><rect
         id="rect4535"
         width="580.8219"
         height="165.75342"
         x="809.58905"
         y="339.81165" /></flowRegion><flowPara
       id="flowPara4537" /></flowRoot>  <text
     xml:space="preserve"
     style="font-size:37.01930237px;font-style:normal;font-weight:normal;line-height:125%;letter-spacing:0px;word-spacing:0px;fill:#000000;fill-opacity:1;stroke:none;font-family:Sans"
     x="356.09821"
     y="183.27472"
     id="text4539"
     sodipodi:linespacing="125%"><tspan
       sodipodi:role="line"
       x="356.09821"
       y="183.27472"
       style="font-size:133.26948547px;font-style:normal;font-variant:normal;font-weight:bold;font-stretch:normal;font-family:Almendra;-inkscape-font-specification:Almendra Bold"
       id="tspan4543"><tspan
         style="fill:#542437;fill-opacity:1"
         id="tspan4547">Risks </tspan></tspan></text>
  <text
     xml:space="preserve"
     style="font-size:34.69905472px;font-style:normal;font-weight:normal;line-height:125%;letter-spacing:0px;word-spacing:0px;fill:#000000;fill-opacity:1;stroke:none;font-family:Sans"
     x="412.94574"
     y="391.04688"
     id="text4539-9"
     sodipodi:linespacing="125%"><tspan
       sodipodi:role="line"
       x="412.94574"
       y="391.04688"
       style="font-size:124.91659546px;font-style:normal;font-variant:normal;font-weight:bold;font-stretch:normal;font-family:Almendra;-inkscape-font-specification:Almendra Bold"
       id="tspan4543-8"><tspan
         style="fill:#542437;fill-opacity:1"
         id="tspan4547-0">Challenges</tspan></tspan></text>
  <text
     xml:space="preserve"
     style="font-size:25.4998951px;font-style:normal;font-weight:normal;line-height:125%;letter-spacing:0px;word-spacing:0px;fill:#000000;fill-opacity:1;stroke:none;font-family:Sans"
     x="473.40714"
     y="276.93359"
     id="text4539-4"
     sodipodi:linespacing="125%"><tspan
       sodipodi:role="line"
       x="473.40714"
       y="276.93359"
       style="font-size:91.79962158px;font-style:normal;font-variant:normal;font-weight:bold;font-stretch:normal;font-family:Almendra;-inkscape-font-specification:Almendra Bold"
       id="tspan4543-0"><tspan
         style="fill:#542437;fill-opacity:1"
         id="tspan4547-6">and </tspan></tspan></text>
</svg>
