<?xml version="1.0" encoding="UTF-8" standalone="no"?>
<!-- Created with Inkscape (http://www.inkscape.org/) -->

<svg
   xmlns:dc="http://purl.org/dc/elements/1.1/"
   xmlns:cc="http://creativecommons.org/ns#"
   xmlns:rdf="http://www.w3.org/1999/02/22-rdf-syntax-ns#"
   xmlns:svg="http://www.w3.org/2000/svg"
   xmlns="http://www.w3.org/2000/svg"
   xmlns:sodipodi="http://sodipodi.sourceforge.net/DTD/sodipodi-0.dtd"
   xmlns:inkscape="http://www.inkscape.org/namespaces/inkscape"
   version="1.1"
   width="1068.5669"
   height="1218.4034"
   id="svg3896"
   inkscape:version="0.48.3.1 r9886"
   sodipodi:docname="fantasy-renaissance.svg">
  <sodipodi:namedview
     pagecolor="#ffffff"
     bordercolor="#666666"
     borderopacity="1"
     objecttolerance="10"
     gridtolerance="10"
     guidetolerance="10"
     inkscape:pageopacity="0"
     inkscape:pageshadow="2"
     inkscape:window-width="1600"
     inkscape:window-height="841"
     id="namedview3148"
     showgrid="false"
     inkscape:zoom="0.42"
     inkscape:cx="219.25184"
     inkscape:cy="739.91115"
     inkscape:window-x="0"
     inkscape:window-y="27"
     inkscape:window-maximized="1"
     inkscape:current-layer="svg3896" />
  <defs
     id="defs3898" />
  <metadata
     id="metadata3901">
    <rdf:RDF>
      <cc:Work
         rdf:about="">
        <dc:format>image/svg+xml</dc:format>
        <dc:type
           rdf:resource="http://purl.org/dc/dcmitype/StillImage" />
        <dc:title />
      </cc:Work>
    </rdf:RDF>
  </metadata>
  <path
     style="fill:#000000;fill-opacity:1;stroke:none"
     d="m 199.32476,1136.2273 c -1.72561,-1.6699 -44.09579,-10.0512 -53.58136,-10.5992 -5.02433,-0.2903 -9.14012,-1.2224 -9.14631,-2.0716 -0.0154,-2.185 7.25158,-21.9046 20.59358,-55.8783 14.00835,-35.6707 22.72818,-61.1462 22.74602,-66.4538 0.009,-2.18341 1.26939,-6.40747 2.80453,-9.387 1.53514,-2.97941 4.01986,-11.26772 5.52151,-18.41845 3.04461,-14.49744 18.73053,-80.69801 23.10442,-97.50942 5.99093,-23.02653 9.956,-42.03574 10.6716,-51.16176 0.41017,-5.23096 1.8027,-14.38629 3.0944,-20.3452 14.31724,-66.04665 14.8206,-68.93685 20.75311,-119.17826 6.57829,-55.70997 7.20352,-62.95845 6.13154,-71.07751 -0.5983,-4.53093 0.13441,-12.60342 1.62824,-17.93888 4.99701,-17.84751 -1.35458,-14.55867 -13.16908,6.81894 -3.90819,7.07154 -8.39229,14.38227 -9.96483,16.24602 -1.57245,1.86377 -4.44733,12.10227 -6.38855,22.75221 -3.38808,18.58804 -14.29822,53.65866 -18.13807,58.30491 -1.01328,1.22613 -3.01957,8.56744 -4.45843,16.31403 -4.27987,23.04307 -7.64283,27.90566 -27.72366,40.08722 -14.7549,8.95071 -19.35312,13.14172 -26.44735,24.10535 -4.723,7.29905 -10.01335,14.45453 -11.75634,15.90109 -5.21236,4.32587 -4.48629,13.37457 -12.34609,-153.87771 l -2.60176,-55.36562 -6.16212,0.90439 -6.16211,0.90441 0.31215,39.29308 c 0.27112,34.11934 -0.31434,41.70108 -4.4466,57.58145 -2.61732,10.05862 -6.11134,20.90397 -7.76451,24.10081 -1.65309,3.19684 -3.10103,10.56857 -3.21753,16.38164 -0.34037,16.9852 2.58493,50.65646 4.40101,50.65646 1.7288,0 5.31346,10.59711 4.62034,13.65905 -0.21679,0.95771 1.08592,3.22132 2.8949,5.03027 1.80899,1.80894 3.28905,4.49813 3.28905,5.97596 0,1.47781 1.92994,4.75849 4.28871,7.29037 6.26877,6.72874 5.38035,32.05729 -1.31945,37.61764 -2.2218,1.84395 -2.96926,9.21596 -2.96926,29.28495 0,17.47468 -0.80169,26.82065 -2.3006,26.82065 -1.37269,0 -1.86441,2.84023 -1.21916,7.04235 0.59483,3.8733 1.76985,23.37519 2.61131,43.33755 0.84148,19.9624 2.24328,36.29509 3.11514,36.29509 3.44542,0 4.14838,14.23202 1.21989,24.69752 -5.39646,19.2854 -6.76487,38.1721 -5.5893,77.1458 0.62904,20.8563 0.96596,38.2461 0.74872,38.6443 -0.92938,1.7033 -18.296962,2.9437 -23.374255,1.6694 l -5.548081,-1.3924 0.081,-28.6698 c 0.0446,-15.7685 0.945946,-41.334 2.003742,-56.8123 1.057796,-15.4783 1.141615,-28.6421 0.186386,-29.2528 -1.830187,-1.1703 -4.996386,-58.4851 -4.541614,-82.21265 0.146888,-7.66089 1.702684,-16.9543 3.457334,-20.65199 2.433578,-5.12831 3.313725,-17.50146 3.710614,-52.16085 0.478798,-41.8229 0.142065,-46.56408 -4.232458,-59.59539 -5.88709,-17.53705 -9.410497,-36.34513 -11.555394,-61.68308 -0.907905,-10.72604 -2.318723,-24.37737 -3.134981,-30.33628 -1.257107,-9.17666 -0.630601,-12.49212 4.094851,-21.66877 3.068546,-5.95892 5.583211,-9.90806 5.588126,-8.77586 0.02275,5.18291 4.100312,-2.84491 5.259766,-10.35559 0.704408,-4.56338 2.387707,-10.36521 3.740463,-12.89297 2.866871,-5.35676 0.709415,-66.75774 -2.413464,-68.6878 -1.045145,-0.64592 -2.573184,-3.8554 -3.395539,-7.13213 -0.822447,-3.2767 -2.362408,-6.49355 -3.422115,-7.14853 -3.975996,-2.45724 -2.02695,-19.69776 4.025139,-35.6051 0.6802,-1.78769 1.041961,-4.10127 0.803972,-5.14132 -0.237897,-1.04005 1.0699,-1.31443 2.906367,-0.60973 2.01703,0.77402 3.338934,0.0929 3.338934,-1.72045 0,-1.65098 1.035954,-3.34705 2.302069,-3.7691 2.392441,-0.79752 -0.911272,-12.42528 -4.181766,-14.71784 -0.884606,-0.62013 -3.138168,-6.00301 -5.007762,-11.96192 -2.94623,-9.3903 -3.006022,-12.13409 -0.448491,-20.58534 1.62296,-5.36302 2.398902,-12.74667 1.724162,-16.40812 -0.674649,-3.66144 -0.07736,-14.38747 1.327455,-23.83565 1.404722,-9.44816 2.783778,-19.8115 3.06445,-23.02961 0.280671,-3.21815 1.687031,-7.26898 3.125244,-9.0019 1.438122,-1.7329 3.04279,-12.00895 3.565818,-22.83565 1.045968,-21.65163 3.646998,-29.68149 13.634488,-42.092 7.94516,-9.87265 10.42725,-17.24428 12.30294,-36.53915 1.53633,-15.80294 -0.30569,-21.59596 -9.0551,-28.47828 -4.34795,-3.42006 -5.00731,-5.56816 -4.33603,-14.12588 0.43539,-5.55085 2.09221,-13.01774 3.68176,-16.59309 2.65719,-5.97675 3.41511,-26.77936 1.69732,-46.58785 -0.36176,-4.17125 -3.33621,-12.05768 -6.60997,-17.52541 -12.415341,-20.73596 -4.79754,-43.73442 17.58363,-53.0859 9.42388,-3.93755 15.54204,-3.8648 25.97293,0.30882 9.13711,3.65594 16.68111,11.09513 19.93777,19.66082 2.62642,6.90809 2.65036,20.72001 0.0473,27.20666 -2.4789,6.17672 -11.81477,16.93437 -14.69639,16.93437 -3.28796,0 -9.293,7.50526 -9.293,11.61473 0,2.02918 -1.45204,4.24662 -3.22671,4.92765 -1.77477,0.68104 -4.29936,5.22112 -5.61016,10.08907 -2.89226,10.74135 -2.90336,37.9228 -0.0164,41.40092 1.1469,1.38193 2.5498,7.51296 3.11742,13.62451 0.56771,6.11156 2.09066,13.08956 3.38425,15.5067 1.29351,2.41712 2.35186,10.85836 2.35186,18.75831 0,11.23732 -1.29698,17.0457 -5.9589,26.68671 -3.27742,6.77773 -6.60434,12.61952 -7.3931,12.98179 -0.78887,0.36225 -4.36516,10.1132 -7.94736,21.66876 -5.69087,18.3579 -6.84323,26.61769 -9.12846,65.43112 -1.43848,24.43154 -2.00055,50.75911 -1.249,58.50569 0.75155,7.74659 1.79123,18.93164 2.31044,24.85566 0.55515,6.33436 2.33492,11.78806 4.32083,13.24014 1.85721,1.35807 3.37679,3.22931 3.37679,4.15831 0,1.80481 6.66868,7.40028 8.95654,7.51516 0.75484,0.0379 1.87206,-1.84164 2.48264,-4.17676 0.75555,-2.88906 4.27587,-5.04278 11.01716,-6.74026 6.09796,-1.53545 10.37811,-3.97909 11.1324,-6.35568 1.69412,-5.33783 12.58515,-9.41201 21.08883,-7.88907 6.15311,1.10197 7.7576,0.35537 12.27364,-5.71099 2.85732,-3.83827 8.71829,-9.84254 13.02437,-13.34282 8.74012,-7.10448 12.50816,-14.15118 20.5527,-38.43615 5.06902,-15.30261 17.29943,-36.45762 21.0772,-36.45762 0.87614,0 4.50213,-6.09433 8.05784,-13.54298 3.65473,-7.65614 11.0226,-17.95158 16.95012,-23.68516 11.94335,-11.55266 35.38214,-24.49445 48.32064,-26.6804 11.19086,-1.89069 11.20968,-4.98739 0.0412,-6.77331 -4.96647,-0.79415 -13.85973,-5.07973 -20.6877,-9.96911 -6.58703,-4.71687 -13.36478,-8.04335 -15.06166,-7.3922 -1.69688,0.65116 -4.33234,-0.0492 -5.85656,-1.55633 -1.52426,-1.50713 -7.15926,-4.28786 -12.52229,-6.17938 -5.36298,-1.8915 -16.2855,-5.83461 -24.27207,-8.76243 l -14.52119,-5.32333 6.93705,-6.46421 c 3.81546,-3.55531 11.25488,-7.69223 16.53213,-9.19313 5.27733,-1.50093 13.06362,-4.58797 17.30296,-6.86013 4.23934,-2.27214 9.83503,-4.13118 12.43489,-4.13118 2.59983,0 5.05201,-0.73132 5.44928,-1.62516 1.23265,-2.77348 14.17455,-9.20922 18.5192,-9.20922 2.26984,0 6.01978,-1.43163 8.33318,-3.1814 2.3134,-1.74977 5.91261,-3.21242 7.99823,-3.25032 2.08562,-0.0379 3.79203,-1.10156 3.79203,-2.36367 0,-1.26212 0.94653,-1.7098 2.10335,-0.99482 1.15685,0.71496 2.66768,-1.42144 3.35742,-4.74759 2.79872,-13.49629 5.99545,-23.88266 10.19787,-33.13351 2.43625,-5.36301 5.64298,-16.61279 7.12602,-24.9995 2.30837,-13.05413 3.98129,-16.62644 11.62466,-24.82323 4.91052,-5.26606 8.92824,-11.17464 8.92824,-13.13017 0,-3.7159 13.97185,-19.38844 17.28455,-19.38844 1.04928,0 3.19631,-1.25421 4.77115,-2.78713 5.76778,-5.61421 18.15167,-14.08125 22.53585,-15.40804 4.03659,-1.22162 4.40295,-0.62895 3.5281,5.7074 -0.53692,3.88882 -2.08472,8.53323 -3.43955,10.3209 -1.35483,1.78767 -4.31488,6.90692 -6.5779,11.3761 -2.26305,4.46919 -4.93615,8.12579 -5.94027,8.12579 -3.1746,0 -1.9795,5.66012 2.21664,10.49833 3.60755,4.15952 3.93258,7.52888 3.02225,31.32777 -0.9308,24.33434 -0.52621,28.23015 4.62522,44.53736 3.1049,9.82871 5.64525,20.84173 5.64525,24.47339 0,15.48779 8.51443,23.21705 48.51503,44.04117 4.63527,2.41311 10.69011,7.96211 13.45518,12.33111 2.76507,4.36901 6.04199,8.57072 7.28207,9.33713 4.5696,2.82415 2.16136,5.57355 -2.62079,2.99206 -6.64818,-3.5888 -17.56616,-2.5633 -26.57389,2.49605 -4.11889,2.31342 -8.96626,3.63931 -10.77197,2.94638 -1.8057,-0.69289 -3.2831,-0.18049 -3.2831,1.13888 0,1.31931 -3.16905,2.44003 -7.04234,2.49053 -3.8733,0.0505 -12.23279,1.30418 -18.57665,2.78601 l -11.53426,2.69421 12.28134,5.09034 c 12.76046,5.28892 40.04006,29.87112 40.04006,36.08092 0,1.70218 0.85951,3.09488 1.91001,3.09488 2.16567,0 7.6742,14.42278 12.77251,33.44181 1.89549,7.07108 4.79103,14.3843 6.43452,16.25158 7.97437,9.0604 13.55916,20.47922 13.63019,27.86871 0.07,7.27015 3.21295,22.24215 7.90767,37.66829 0.97134,3.19167 3.80178,8.13632 6.28983,10.98806 2.48806,2.85174 6.37374,8.52868 8.63484,12.61538 5.41279,9.78306 14.05108,19.34822 17.4734,19.34822 1.50437,0 7.40768,4.41374 13.11847,9.80833 6.50192,6.14191 10.71434,8.77438 11.26899,7.04235 0.48715,-1.5213 1.57086,-3.25352 2.4082,-3.84941 0.83735,-0.59589 3.20342,-6.19122 5.25795,-12.43407 4.24063,-12.88542 5.15855,-13.83727 11.69564,-12.12778 3.72648,0.9745 4.72418,2.87537 4.7787,9.10471 0.0379,4.33018 1.6032,9.82325 3.47845,12.20682 3.17802,4.03952 3.31369,3.5183 1.99813,-7.67686 l -1.41138,-12.01061 8.22561,-4.02558 c 4.5241,-2.2141 12.9812,-4.27713 18.79357,-4.58455 9.81861,-0.51933 11.15259,0.0557 18.81332,8.10874 7.66971,8.06254 8.13843,9.29419 6.71346,17.64133 -1.08609,6.36215 -3.02344,9.71723 -6.65717,11.52884 -7.15921,3.56925 -19.17311,15.24002 -20.72659,20.1346 -0.9514,2.99758 -4.25171,4.49379 -12.37746,5.61136 -12.66449,1.74181 -24.46903,6.19202 -27.06335,10.20261 -0.97533,1.50778 -2.39277,16.8803 -3.14988,34.16115 -2.58879,59.08953 -6.28174,124.59339 -7.16272,127.04942 -0.90387,2.51981 3.77613,17.75644 7.71403,25.11446 1.5586,2.91225 1.45233,5.04054 -0.36075,7.22519 -1.41361,1.70329 -5.45124,9.19794 -8.97254,16.65479 -8.24764,17.46557 -17.42103,31.98017 -20.17775,31.92623 -5.68875,-0.11138 -20.47245,-28.89231 -20.5538,-40.01431 -0.0173,-2.37105 -1.73063,-8.41904 -3.80733,-13.43998 -4.13923,-10.00775 -8.80882,-12.34364 -20.14389,-10.07661 l -7.00798,1.40158 1.0583,-12.76167 c 0.81796,-9.86358 -0.12936,-16.2126 -4.171,-27.95768 -4.97614,-14.46034 -12.76623,-42.3561 -19.06886,-68.2845 -1.59336,-6.55481 -4.02589,-16.54954 -5.40565,-22.2105 -1.37976,-5.66097 -2.85482,-10.29266 -3.27792,-10.29266 -0.42309,0 -0.37715,7.06943 0.1021,15.70986 0.89104,16.06434 9.30384,56.49146 14.99318,72.04868 1.74337,4.76712 3.21255,10.73751 3.26486,13.26751 0.0522,2.53003 2.00584,8.91955 4.34114,14.19892 3.3019,7.46447 4.4645,16.07824 5.22848,38.73754 0.70159,20.80959 1.96161,30.99679 4.40811,35.63926 1.88414,3.57534 3.4317,8.57519 3.43905,11.1108 0.006,2.53556 1.39976,5.76076 3.09427,7.16707 1.6945,1.40632 3.75494,6.64497 4.57874,11.64145 0.82381,4.99646 2.24336,10.05957 3.15453,11.25135 0.91116,1.19178 2.32148,4.60462 3.13405,7.58408 5.91847,21.70157 25.89952,81.62034 38.65841,115.92789 8.42115,22.644 17.69606,47.9964 20.61088,56.3389 2.91482,8.3425 7.47559,18.0935 10.13504,21.6687 2.65946,3.5754 5.49586,10.0592 6.30313,14.4086 0.80727,4.3493 3.8797,11.462 6.82763,15.806 2.94795,4.344 5.3599,8.2573 5.3599,8.6961 0,0.4388 -20.23321,1.2668 -44.9627,1.84 -26.73321,0.6196 -52.86947,2.4413 -64.46461,4.4931 -15.77664,2.7918 -44.1492,3.679 -148.5316,4.6445 -70.96634,0.6564 -129.47203,0.7655 -130.01262,0.2424 l 0,0 z M 446.71382,643.67443 c -2.55441,-4.39272 -3.17124,-2.98671 -1.08026,2.46232 0.74312,1.93652 1.8076,3.06452 2.3655,2.50662 0.5579,-0.55792 -0.0195,-2.79393 -1.28524,-4.96894 z M 434.0759,595.29889 c -0.62333,-2.38356 -1.50712,-4.33375 -1.96402,-4.33375 -0.45688,0 -0.8307,1.95019 -0.8307,4.33375 0,2.38357 0.8838,4.33376 1.96399,4.33376 1.08022,0 1.45404,-1.95019 0.83073,-4.33376 z m 166.22171,-26.13041 c 0,-1.12146 -0.9751,-2.039 -2.16687,-2.039 -1.19179,0 -2.16689,1.5202 -2.16689,3.3782 0,1.85803 0.9751,2.77556 2.16689,2.039 1.19177,-0.73656 2.16687,-2.25676 2.16687,-3.3782 z"
     id="path3084"
     inkscape:connector-curvature="0" />
  <path
     style="fill:#000000;fill-opacity:1;stroke:none"
     d="m 865.8048,1154.5907 c -8.2742,-1.8419 -13.2788,-13.8011 -11.7943,-28.184 0.6903,-6.6887 0.2259,-14.0004 -1.0322,-16.2483 -1.4809,-2.6463 -1.3412,-11.8448 0.3961,-26.091 3.1374,-25.727 3.1044,-21.2741 0.3583,-48.1942 -1.2022,-11.7857 -3.3915,-24.4447 -4.8651,-28.1312 -1.4737,-3.6864 -2.6794,-9.67507 -2.6794,-13.30827 0,-4.8575 -1.6925,-7.3768 -6.3954,-9.5196 -3.5175,-1.6026 -10.3681,-6.0604 -15.2236,-9.90598 -4.8555,-3.84562 -9.3386,-6.99205 -9.9625,-6.99205 -3.0904,0 -13.4506,37.1919 -15.8897,57.0424 -1.5219,12.3852 -3.8079,23.7728 -5.08,25.3056 -1.5049,1.8133 -1.4191,5.1384 0.2456,9.5169 4.3257,11.3774 6.828,38.5647 4.3691,47.47 -2.9754,10.7762 -7.8438,13.046 -27.9813,13.046 -9.1888,0 -22.92,1.6506 -30.5136,3.668 -16.5422,4.3947 -38.7048,2.6772 -46.457,-3.6001 -3.8148,-3.089 -5.6446,-7.9703 -6.8284,-18.2153 -0.8895,-7.6975 -4.5667,-20.9392 -8.1716,-29.426 -6.3815,-15.0234 -6.6358,-17.3796 -9.6373,-89.28567 -1.6955,-40.62035 -4.2723,-108.67659 -5.7261,-151.23612 -1.4537,-42.55952 -3.2154,-83.00595 -3.9146,-89.88095 l -1.2715,-12.5 -17.6858,0 c -16.2155,0 -17.6858,-0.4039 -17.6858,-4.85831 0,-9.54559 9.4513,-18.64721 21.2156,-20.43057 10.2314,-1.551 10.5261,-1.79143 4.627,-3.77595 -7.32,-2.4625 -9.138,-7.63048 -9.0397,-25.69707 0.095,-17.46524 3.3887,-33.66215 7.4762,-36.76367 6.8303,-5.18276 9.626,-16.72769 6.5428,-27.01871 -7.7622,-25.90779 23.4616,-43.69846 33.626,-19.15939 1.7839,4.3067 2.2873,11.74615 1.3402,19.80462 -1.5123,12.86715 -1.4922,12.9186 6.5412,16.73067 8.1892,3.88602 10.9445,3.72841 48.504,-2.77471 l 7.7381,-1.33979 0.1419,-26.52524 c 0.078,-14.58885 0.9797,-31.6145 2.0035,-37.83474 2.027,-12.31461 2.6312,-11.78516 -14.0502,-12.312 -4.8782,-0.15404 -5.8462,-1.26214 -5.3639,-6.14038 0.3236,-3.27381 0.6493,-16.66666 0.7238,-29.7619 0.1858,-32.6504 2.2329,-39.13066 15.3335,-48.53879 5.9044,-4.24021 10.7352,-8.45742 10.7352,-9.37158 0,-0.91415 2.7578,-4.63629 6.1285,-8.27142 l 6.1285,-6.60932 -1.5915,-36.22349 c -1.9214,-43.73039 -1.9015,-47.03472 0.5184,-86.2235 l 1.9114,-30.95238 19.7007,-9.80599 c 25.9526,-12.91783 43.1184,-16.5775 60.6681,-12.9342 17.8915,3.71427 49.7445,19.42419 56.4156,27.82423 5.068,6.38146 5.3181,8.27743 3.883,29.43977 -3.1067,45.81138 -11.6176,67.6033 -32.9112,84.26806 -5.9161,4.63006 -7.6678,8.14402 -8.9181,17.88973 l -1.5559,12.12793 9.0901,0 c 7.1057,0 11.1776,1.88592 18.6521,8.63863 5.259,4.75124 10.1997,11.17981 10.9792,14.28571 1.134,4.51825 2.9916,5.64708 9.2925,5.64708 6.3721,0 9.3472,1.85864 15.5882,9.73855 10.3883,13.11633 11.8857,27.92453 4.791,47.38226 -4.3979,12.06174 -4.7856,15.64115 -2.5807,23.8295 3.017,11.20436 1.7879,14.28779 -5.6955,14.28779 -2.9782,0 -5.9781,0.56305 -6.6662,1.25121 -1.5549,1.55493 2.2449,24.43181 5.131,30.89165 4.9789,11.14371 7.3877,29.62097 5.9106,45.33654 -3.2143,34.19662 -1.2986,72.39348 4.5925,91.56822 11.1133,36.17224 13.9019,63.69926 7.6732,75.74421 -4.3387,8.39027 -21.4714,16.00574 -31.6366,14.06253 -4.8377,-0.92476 -7.8906,0.17381 -11.5974,4.17354 -4.7301,5.10384 -5.0498,8.14846 -5.3426,50.86886 -0.1857,27.08091 0.6198,46.01564 1.9934,46.86457 1.2677,0.78346 2.3235,4.30767 2.3462,7.83157 0.024,3.52391 1.7113,13.9071 3.7524,23.07377 2.041,9.16666 4.246,26.30952 4.9,38.09527 3.0633,55.21137 4.0179,64.71847 7.1062,70.77427 5.5083,10.8013 13.5615,48.01 10.6043,48.9957 -1.5738,0.5246 -2.5947,8.1026 -2.5947,19.259 0,25.8683 -0.6555,26.4516 -30.9952,27.5787 -13.7265,0.5099 -27.3797,0.3879 -30.3406,-0.2712 z m -144.4325,-82.9822 c 5.0661,-3.8641 7.3437,-7.349 6.6176,-10.1256 -0.6772,-2.5896 1.5967,-6.8241 5.8554,-10.9042 6.071,-5.8163 6.8172,-7.9587 5.8284,-16.7316 -0.7066,-6.2689 0.873,-17.4994 4.1908,-29.7952 5.8983,-21.85967 5.3679,-41.61818 -1.2472,-46.45525 -2.348,-1.71696 -4.0834,-7.57929 -4.6837,-15.822 -0.5244,-7.20196 -2.0419,-15.95722 -3.3722,-19.45615 -1.5719,-4.13435 -1.6272,-9.12171 -0.1579,-14.2449 1.2435,-4.33576 2.2609,-11.66974 2.2609,-16.29771 0,-4.62798 1.6667,-10.79412 3.7038,-13.7025 3.0326,-4.32962 3.5104,-10.79043 2.6361,-35.64884 -0.5873,-16.69845 -1.8266,-34.30231 -2.754,-39.11964 -0.9774,-5.07662 -0.5227,-12.2845 1.0815,-17.14531 2.0548,-6.22612 2.0802,-9.67124 0.099,-13.37374 -2.0896,-3.90438 -1.5467,-9.22864 2.5003,-24.52136 2.8432,-10.74376 5.3178,-26.67819 5.4991,-35.40985 l 0.3297,-15.87572 -9.5238,-0.79095 c -13.6345,-1.13231 -29.7619,0.32779 -29.7619,2.6945 0,1.11162 2.1429,1.46079 4.7619,0.77588 2.6191,-0.6849 4.7619,-0.0907 4.7619,1.32062 0,1.41126 1.9919,4.48264 4.4263,6.82531 2.4345,2.34269 5.1335,7.20586 5.9978,10.80705 l 1.5714,6.54762 -17.762,0 c -9.7691,0 -18.2793,0.83707 -18.9116,1.86016 -0.6323,1.02307 1.4163,64.50522 4.5526,141.07143 6.6045,161.23975 6.9414,190.29695 2.3553,203.16105 l -3.2755,9.1879 7.3478,-1.4696 c 4.0413,-0.8082 10.824,-4.1209 15.0725,-7.3614 l 0,0 z M 895.6878,734.16269 c -1.0822,-2.25033 -1.8099,-7.07176 -1.617,-10.71428 0.1928,-3.64252 -1.3947,-10.60624 -3.5279,-15.47488 -2.1332,-4.86867 -3.8785,-12.03757 -3.8785,-15.93091 0,-3.89335 -1.0714,-7.741 -2.381,-8.55033 -1.3095,-0.80933 -2.4851,-9.71186 -2.6123,-19.78338 l -0.2314,-18.31186 -4.8625,18.71693 c -4.4125,16.98493 -4.5797,20.28979 -1.8065,35.71429 1.6807,9.34854 6.9194,25.03307 11.6415,34.8545 8.1422,16.93504 8.6541,17.48831 9.9144,10.71428 0.7309,-3.92857 0.4435,-8.98402 -0.6388,-11.23436 l 0,0 z"
     id="path3086"
     inkscape:connector-curvature="0" />
  <path
     sodipodi:type="star"
     style="opacity:0.5;fill:#00ae00;fill-opacity:1;stroke:#edc951;stroke-width:20;stroke-linejoin:round;stroke-miterlimit:4;stroke-opacity:1;stroke-dasharray:none"
     id="path5680"
     sodipodi:sides="4"
     sodipodi:cx="-702.85712"
     sodipodi:cy="-339.47388"
     sodipodi:r1="385.92587"
     sodipodi:r2="272.89081"
     sodipodi:arg1="0.80110368"
     sodipodi:arg2="1.5865018"
     inkscape:flatsided="true"
     inkscape:rounded="0.06"
     inkscape:randomized="0"
     d="m -434.28569,-62.331016 c -23.51635,22.789042 -522.92525,14.944922 -545.71429,-8.571429 -22.78902,-23.516352 -14.94492,-522.925255 8.57143,-545.714295 23.51635,-22.78904 522.92525,-14.94492 545.71429,8.57143 22.78905,23.51635 14.94493,522.925253 -8.57143,545.714294 z"
     transform="matrix(1.7764846,0,0,2.0255489,1786.4689,1296.6537)" />
  <path
     sodipodi:type="star"
     style="opacity:0.5;fill:#edc951;fill-opacity:1;stroke:#516aed;stroke-width:10;stroke-linejoin:round;stroke-miterlimit:4;stroke-opacity:1;stroke-dasharray:none"
     id="path5440"
     sodipodi:sides="7"
     sodipodi:cx="-410"
     sodipodi:cy="-281.59656"
     sodipodi:r1="204.31458"
     sodipodi:r2="51.860443"
     sodipodi:arg1="-2.5535901"
     sodipodi:arg2="-2.1153642"
     inkscape:flatsided="false"
     inkscape:rounded="0.06"
     inkscape:randomized="0"
     d="m -580.00001,-394.92988 c 5.20371,-7.98765 134.9278,73.82653 143.13378,68.97443 8.23753,-4.87076 -0.0454,-158.29934 9.48052,-159.21464 9.48946,-0.91179 26.4062,151.52089 35.31607,154.91135 8.94412,3.40349 123.7351,-98.73353 130.39002,-91.85653 6.62945,6.85066 -101.99981,115.11692 -99.09536,124.19686 2.91561,9.11484 154.34055,35.18065 153.11318,44.67141 -1.22267,9.45443 -153.59788,-7.97243 -158.88596,-0.0404 -5.30842,7.96252 68.72442,142.60307 60.53899,147.56087 -8.15409,4.93882 -89.53361,-125.05839 -99.0322,-124.24724 -9.53509,0.81427 -68.6426,142.642485 -77.62229,139.333993 -8.94532,-3.295825 41.95129,-147.972823 35.39483,-154.893373 -6.58165,-6.94715 -154.32034,35.26919 -157.3324,26.18577 -3.00054,-9.04864 141.84601,-59.46071 143.16883,-68.90164 1.32791,-9.47723 -123.79172,-98.66253 -118.56801,-106.68087 z"
     inkscape:transform-center-x="-1.0687572"
     inkscape:transform-center-y="-1.7424212"
     transform="matrix(0.27756473,0,0,0.27756473,676.2363,559.21422)" />
  <path
     sodipodi:type="star"
     style="opacity:0.5;fill:#edc951;fill-opacity:1;stroke:#516aed;stroke-width:10;stroke-linejoin:round;stroke-miterlimit:4;stroke-opacity:1;stroke-dasharray:none"
     id="path5440-6"
     sodipodi:sides="7"
     sodipodi:cx="-410"
     sodipodi:cy="-281.59656"
     sodipodi:r1="204.31458"
     sodipodi:r2="51.860443"
     sodipodi:arg1="-2.5535901"
     sodipodi:arg2="-2.1153642"
     inkscape:flatsided="false"
     inkscape:rounded="0.06"
     inkscape:randomized="0"
     d="m -580.00001,-394.92988 c 5.20371,-7.98765 134.9278,73.82653 143.13378,68.97443 8.23753,-4.87076 -0.0454,-158.29934 9.48052,-159.21464 9.48946,-0.91179 26.4062,151.52089 35.31607,154.91135 8.94412,3.40349 123.7351,-98.73353 130.39002,-91.85653 6.62945,6.85066 -101.99981,115.11692 -99.09536,124.19686 2.91561,9.11484 154.34055,35.18065 153.11318,44.67141 -1.22267,9.45443 -153.59788,-7.97243 -158.88596,-0.0404 -5.30842,7.96252 68.72442,142.60307 60.53899,147.56087 -8.15409,4.93882 -89.53361,-125.05839 -99.0322,-124.24724 -9.53509,0.81427 -68.6426,142.642485 -77.62229,139.333993 -8.94532,-3.295825 41.95129,-147.972823 35.39483,-154.893373 -6.58165,-6.94715 -154.32034,35.26919 -157.3324,26.18577 -3.00054,-9.04864 141.84601,-59.46071 143.16883,-68.90164 1.32791,-9.47723 -123.79172,-98.66253 -118.56801,-106.68087 z"
     inkscape:transform-center-x="-0.82114874"
     inkscape:transform-center-y="-1.3387403"
     transform="matrix(0.21325856,0,0,0.21325856,705.04733,388.45379)" />
  <path
     sodipodi:type="star"
     style="opacity:0.5;fill:#edc951;fill-opacity:1;stroke:#516aed;stroke-width:10;stroke-linejoin:round;stroke-miterlimit:4;stroke-opacity:1;stroke-dasharray:none"
     id="path5440-9"
     sodipodi:sides="7"
     sodipodi:cx="-410"
     sodipodi:cy="-281.59656"
     sodipodi:r1="204.31458"
     sodipodi:r2="51.860443"
     sodipodi:arg1="-2.5535901"
     sodipodi:arg2="-2.1153642"
     inkscape:flatsided="false"
     inkscape:rounded="0.06"
     inkscape:randomized="0"
     d="m -580.00001,-394.92988 c 5.20371,-7.98765 134.9278,73.82653 143.13378,68.97443 8.23753,-4.87076 -0.0454,-158.29934 9.48052,-159.21464 9.48946,-0.91179 26.4062,151.52089 35.31607,154.91135 8.94412,3.40349 123.7351,-98.73353 130.39002,-91.85653 6.62945,6.85066 -101.99981,115.11692 -99.09536,124.19686 2.91561,9.11484 154.34055,35.18065 153.11318,44.67141 -1.22267,9.45443 -153.59788,-7.97243 -158.88596,-0.0404 -5.30842,7.96252 68.72442,142.60307 60.53899,147.56087 -8.15409,4.93882 -89.53361,-125.05839 -99.0322,-124.24724 -9.53509,0.81427 -68.6426,142.642485 -77.62229,139.333993 -8.94532,-3.295825 41.95129,-147.972823 35.39483,-154.893373 -6.58165,-6.94715 -154.32034,35.26919 -157.3324,26.18577 -3.00054,-9.04864 141.84601,-59.46071 143.16883,-68.90164 1.32791,-9.47723 -123.79172,-98.66253 -118.56801,-106.68087 z"
     inkscape:transform-center-x="-0.47312625"
     inkscape:transform-center-y="-0.77134852"
     transform="matrix(0.12287517,0,0,0.12287517,673.39741,150.81687)" />
  <path
     sodipodi:type="star"
     style="opacity:0.5;fill:#edc951;fill-opacity:1;stroke:#516aed;stroke-width:10;stroke-linejoin:round;stroke-miterlimit:4;stroke-opacity:1;stroke-dasharray:none"
     id="path5481"
     sodipodi:sides="5"
     sodipodi:cx="-136.66667"
     sodipodi:cy="-301.59656"
     sodipodi:r1="76.739098"
     sodipodi:r2="19.478413"
     sodipodi:arg1="-1.6142472"
     sodipodi:arg2="-0.98592869"
     inkscape:flatsided="false"
     inkscape:rounded="0.06"
     inkscape:randomized="0"
     d="m -140,-378.26323 c 3.71926,-0.1617 10.98315,58.37056 14.08715,60.42586 3.10399,2.0553 59.82735,-14.10793 61.130456,-10.62068 1.303107,3.48726 -52.119716,28.4831 -53.115236,32.07029 -0.99552,3.5872 31.905112,52.53961 28.991217,54.85656 -2.913895,2.31695 -43.194907,-40.76704 -46.914167,-40.60533 -3.71926,0.16171 -40.10891,46.57919 -43.21291,44.52389 -3.10399,-2.0553 25.42379,-53.67851 24.12069,-57.16576 -1.30311,-3.48726 -56.69378,-23.75208 -55.69826,-27.33927 0.99552,-3.5872 58.90768,7.59189 61.82157,5.27494 2.9139,-2.31695 5.07023,-61.25879 8.78949,-61.4205 z"
     inkscape:transform-center-x="0.41291146"
     inkscape:transform-center-y="-2.5413713"
     transform="matrix(0.40285521,0,0,0.40285521,740.98193,484.46949)" />
  <path
     sodipodi:type="star"
     style="opacity:0.5;fill:#edc951;fill-opacity:1;stroke:#516aed;stroke-width:10;stroke-linejoin:round;stroke-miterlimit:4;stroke-opacity:1;stroke-dasharray:none"
     id="path5483"
     sodipodi:sides="5"
     sodipodi:cx="-400"
     sodipodi:cy="-71.596558"
     sodipodi:r1="54.670731"
     sodipodi:r2="13.876877"
     sodipodi:arg1="-2.226492"
     sodipodi:arg2="-1.5981734"
     inkscape:flatsided="false"
     inkscape:rounded="0.06"
     inkscape:randomized="0"
     d="m -433.33333,-114.92989 c 2.10218,-1.61707 30.30227,29.534256 32.95347,29.461656 2.6512,-0.0726 29.1042,-32.720546 31.29174,-31.220946 2.18754,1.4996 -18.72483,37.945766 -17.83651,40.444769 0.88831,2.499003 40.11278,17.56854 39.36256,20.112412 -0.75022,2.543872 -41.87486,-6.082482 -43.97705,-4.465413 -2.10219,1.617069 -4.31314,43.578498 -6.96434,43.651098 -2.6512,0.0726 -7.15526,-41.704945 -9.34279,-43.204545 -2.18754,-1.499599 -42.77845,9.364454 -43.66676,6.865451 -0.88832,-2.499003 37.45266,-19.692592 38.20288,-22.236464 0.75022,-2.543873 -22.12539,-37.790948 -20.0232,-39.408018 z"
     inkscape:transform-center-x="-0.17754754"
     inkscape:transform-center-y="1.8342077"
     transform="matrix(0.38583974,0,0,0.38583974,686.28518,195.99644)" />
  <path
     sodipodi:type="star"
     style="opacity:0.5;fill:#edc951;fill-opacity:1;stroke:#516aed;stroke-width:10;stroke-linejoin:round;stroke-miterlimit:4;stroke-opacity:1;stroke-dasharray:none"
     id="path5487"
     sodipodi:sides="6"
     sodipodi:cx="-680"
     sodipodi:cy="-284.9299"
     sodipodi:r1="48.074017"
     sodipodi:r2="12.202457"
     sodipodi:arg1="-0.5880026"
     sodipodi:arg2="-0.064403824"
     inkscape:flatsided="false"
     inkscape:rounded="0.06"
     inkscape:randomized="0"
     d="m -640,-311.59657 c 1.2647,1.89705 -27.96958,23.60609 -27.82284,25.88133 0.14674,2.27523 31.92739,20.04924 30.91685,22.09302 -1.01054,2.04378 -34.42826,-12.41932 -36.3253,-11.15462 -1.89705,1.26469 -1.39946,37.67455 -3.6747,37.82129 -2.27524,0.14673 -6.45868,-36.02541 -8.50246,-37.03595 -2.04378,-1.01054 -33.32685,17.62531 -34.59155,15.72827 -1.2647,-1.89705 27.96958,-23.60609 27.82284,-25.88133 -0.14674,-2.27524 -31.92739,-20.04924 -30.91685,-22.09302 1.01054,-2.04378 34.42826,12.41932 36.3253,11.15462 1.89705,-1.2647 1.39946,-37.67455 3.6747,-37.82129 2.27524,-0.14674 6.45868,36.02541 8.50246,37.03595 2.04378,1.01054 33.32685,-17.62531 34.59155,-15.72827 z"
     inkscape:transform-center-x="3.9965577"
     inkscape:transform-center-y="-0.59579559"
     transform="translate(1333.3333,500)" />
  <path
     sodipodi:type="star"
     style="opacity:0.5;fill:#edc951;fill-opacity:1;stroke:#516aed;stroke-width:10;stroke-linejoin:round;stroke-miterlimit:4;stroke-opacity:1;stroke-dasharray:none"
     id="path5491"
     sodipodi:sides="5"
     sodipodi:cx="-303.33334"
     sodipodi:cy="-308.26321"
     sodipodi:r1="30"
     sodipodi:r2="7.6147933"
     sodipodi:arg1="-1.5707963"
     sodipodi:arg2="-0.94247777"
     inkscape:flatsided="false"
     inkscape:rounded="0.06"
     inkscape:randomized="0"
     d="m -303.33334,-338.26321 c 1.45536,0 3.29845,22.98406 4.47586,23.8395 1.17741,0.85544 23.6061,-4.49414 24.05583,-3.11001 0.44973,1.38413 -20.83986,10.23948 -21.28959,11.62361 -0.44974,1.38413 11.56887,21.06197 10.39145,21.91741 -1.17741,0.85544 -16.17819,-16.65572 -17.63355,-16.65572 -1.45537,0 -16.45615,17.51116 -17.63356,16.65572 -1.17741,-0.85545 10.84119,-20.53328 10.39146,-21.91741 -0.44973,-1.38414 -21.73933,-10.23948 -21.2896,-11.62361 0.44973,-1.38414 22.87842,3.96545 24.05583,3.11001 1.17742,-0.85544 3.02051,-23.8395 4.47587,-23.8395 z"
     transform="translate(930,730)" />
  <path
     sodipodi:type="star"
     style="opacity:0.5;fill:#edc951;fill-opacity:1;stroke:#516aed;stroke-width:10;stroke-linejoin:round;stroke-miterlimit:4;stroke-opacity:1;stroke-dasharray:none"
     id="path5493"
     sodipodi:sides="5"
     sodipodi:cx="-580"
     sodipodi:cy="-548.26324"
     sodipodi:r1="66.999168"
     sodipodi:r2="17.006163"
     sodipodi:arg1="-1.670465"
     sodipodi:arg2="-1.0421464"
     inkscape:flatsided="false"
     inkscape:rounded="0.06"
     inkscape:randomized="0"
     d="m -586.66667,-614.92991 c 3.23414,-0.32341 12.43746,50.3427 15.24403,51.98203 2.80658,1.63934 51.4593,-15.23278 52.76629,-12.25687 1.30699,2.9759 -44.03537,27.38548 -44.72718,30.56126 -0.69182,3.17579 30.38903,44.23351 27.96266,46.39614 -2.42638,2.16263 -39.65282,-33.41754 -42.88695,-33.09413 -3.23414,0.32341 -32.67784,42.5706 -35.48441,40.93127 -2.80657,-1.63933 19.52858,-48.03866 18.22159,-51.01457 -1.30699,-2.9759 -50.58506,-17.92343 -49.89324,-21.09922 0.69182,-3.17579 51.72214,3.72802 54.14852,1.5654 2.42637,-2.16263 1.41455,-53.6479 4.64869,-53.97131 z"
     inkscape:transform-center-x="1.3897715"
     inkscape:transform-center-y="-2.9724992"
     transform="matrix(0.67798127,0,0,0.67798127,920.53612,647.03713)" />
  <path
     sodipodi:type="star"
     style="opacity:0.5;fill:#edc951;fill-opacity:1;stroke:#516aed;stroke-width:10;stroke-linejoin:round;stroke-miterlimit:4;stroke-opacity:1;stroke-dasharray:none"
     id="path5495"
     sodipodi:sides="5"
     sodipodi:cx="-610"
     sodipodi:cy="-214.92989"
     sodipodi:r1="53.333332"
     sodipodi:r2="13.537411"
     sodipodi:arg1="-1.5707963"
     sodipodi:arg2="-0.9424778"
     inkscape:flatsided="false"
     inkscape:rounded="0.06"
     inkscape:randomized="0"
     d="m -610,-268.26322 c 2.58731,0 5.86391,40.86056 7.95709,42.38134 2.09318,1.52078 41.9664,-7.98959 42.76592,-5.52891 0.79953,2.46068 -37.04864,18.20352 -37.84817,20.66419 -0.79952,2.46068 20.56688,37.4435 18.4737,38.96429 -2.09317,1.52078 -28.76123,-29.61017 -31.34854,-29.61017 -2.58731,0 -29.25537,31.13095 -31.34855,29.61017 -2.09318,-1.52079 19.27323,-36.50361 18.47371,-38.96429 -0.79953,-2.46067 -38.6477,-18.20351 -37.84817,-20.66419 0.79952,-2.46068 40.67274,7.04969 42.76592,5.52891 2.09318,-1.52078 5.36978,-42.38134 7.95709,-42.38134 z"
     inkscape:transform-center-y="-3.0965729"
     transform="matrix(0.61125915,0,0,0.61125915,884.53472,520.43809)" />
  <path
     style="opacity:0.5;fill:#edc951;fill-opacity:1;stroke:#000000;stroke-width:1.17968702px;stroke-linecap:butt;stroke-linejoin:miter;stroke-opacity:1"
     d="m 42.417197,873.98773 c -2.11335,92.02206 15.49802,259.45097 15.49802,259.45097 l 947.490083,10.2247 c 11.2713,-29.3958 19.0202,-270.95376 19.0202,-270.95376 z"
     id="path3939"
     inkscape:connector-curvature="0"
     sodipodi:nodetypes="ccccc" />
  <text
     xml:space="preserve"
     style="font-size:160px;font-style:normal;font-variant:normal;font-weight:normal;font-stretch:normal;text-align:center;line-height:100%;letter-spacing:0px;word-spacing:0px;writing-mode:lr-tb;text-anchor:middle;fill:#ffffff;fill-opacity:1;stroke:#000000;stroke-width:5;stroke-miterlimit:4;stroke-opacity:1;stroke-dasharray:none;font-family:Almendra;-inkscape-font-specification:Almendra"
     x="532.81586"
     y="978.29681"
     id="text5761"
     sodipodi:linespacing="100%"><tspan
       sodipodi:role="line"
       id="tspan5763"
       x="532.81586"
       y="978.29681"
       style="font-size:144px;line-height:100%;fill:#000000;fill-opacity:1;font-weight:normal;-inkscape-font-specification:Almendra">Mythic Fantasy</tspan><tspan
       sodipodi:role="line"
       x="532.81586"
       y="1122.2969"
       id="tspan5625"
       style="font-size:144px;line-height:100%;fill:#000000;fill-opacity:1;font-weight:normal;-inkscape-font-specification:Almendra">Renaissance</tspan></text>
</svg>
