<?xml version="1.0" encoding="UTF-8" standalone="no"?>
<!-- Created with Inkscape (http://www.inkscape.org/) -->

<svg
   xmlns:dc="http://purl.org/dc/elements/1.1/"
   xmlns:cc="http://creativecommons.org/ns#"
   xmlns:rdf="http://www.w3.org/1999/02/22-rdf-syntax-ns#"
   xmlns:svg="http://www.w3.org/2000/svg"
   xmlns="http://www.w3.org/2000/svg"
   xmlns:sodipodi="http://sodipodi.sourceforge.net/DTD/sodipodi-0.dtd"
   xmlns:inkscape="http://www.inkscape.org/namespaces/inkscape"
   width="1068.5669"
   height="1218.4034"
   id="svg3896"
   version="1.1"
   inkscape:version="0.48.3.1 r9886"
   sodipodi:docname="role-play.svg">
  <defs
     id="defs3898" />
  <sodipodi:namedview
     id="base"
     pagecolor="#ffffff"
     bordercolor="#ffffff"
     borderopacity="0.0"
     inkscape:pageopacity="0.0"
     inkscape:pageshadow="0"
     inkscape:zoom="0.35"
     inkscape:cx="383.60678"
     inkscape:cy="733.7084"
     inkscape:document-units="px"
     inkscape:current-layer="layer1"
     showgrid="false"
     fit-margin-top="0"
     fit-margin-left="0"
     fit-margin-right="0"
     fit-margin-bottom="0"
     inkscape:window-width="1600"
     inkscape:window-height="841"
     inkscape:window-x="0"
     inkscape:window-y="27"
     inkscape:window-maximized="1" />
  <metadata
     id="metadata3901">
    <rdf:RDF>
      <cc:Work
         rdf:about="">
        <dc:format>image/svg+xml</dc:format>
        <dc:type
           rdf:resource="http://purl.org/dc/dcmitype/StillImage" />
        <dc:title />
      </cc:Work>
    </rdf:RDF>
  </metadata>
  <g
     inkscape:label="Layer 1"
     inkscape:groupmode="layer"
     id="layer1"
     transform="translate(791.93166,66.618528)">
    <path
       style="fill:#000000;fill-opacity:1;stroke:none"
       d="m -94.256057,1119.5223 c -13.927903,-4.5886 -17.772903,-11.0721 -17.772903,-29.9693 0,-12.6962 1.3574,-18.085 8.7902,-34.8977 1.4405,-3.2583 3.2078,-7.8784 3.927203,-10.2667 0.8598,-2.8541 2.458,-4.0299 4.6629,-3.4306 1.8451,0.5015 -0.2952,-0.8552 -4.7562,-3.0148 -11.068703,-5.3584 -13.611403,-9.0259 -13.611403,-19.6326 l 0,-9.0747 -8.1794,0.6425 c -10.6985,0.8406 -22.0156,-4.9574 -30.4412,-15.59547 -5.8343,-7.36651 -6.5029,-9.53928 -6.6431,-21.59076 -0.1663,-14.29789 -3.9945,-21.71171 -11.2111,-21.71171 -5.3368,0 -9.6798,-7.7604 -9.6798,-17.29632 0,-7.77868 7.5097,-46.4401 11.7918,-60.70678 0.9781,-3.25835 2.6922,-11.25614 3.8094,-17.77286 1.117,-6.51671 3.9205,-21.98964 6.2296,-34.38429 2.4519,-13.16033 3.6905,-25.48357 2.9774,-29.62143 -0.6716,-3.89713 -2.0063,-13.3062 -2.9658,-20.90904 -0.9596,-7.60282 -2.7483,-16.42034 -3.975,-19.59447 -1.2267,-3.17413 -1.7816,-6.94079 -1.2331,-8.37036 0.5486,-1.42957 -2.7475,-6.43832 -7.3247,-11.13055 -22.5043,-23.06988 -21.7394,-21.51817 -22.5042,-45.65505 -0.6009,-18.96247 -1.2246,-22.26647 -4.9519,-26.23396 -2.3454,-2.49654 -5.8183,-4.53917 -7.7176,-4.53917 -1.8995,0 -5.9783,-2.52486 -9.0642,-5.61079 -3.086,-3.08592 -8.9402,-7.19065 -13.0093,-9.12159 -7.8208,-3.71121 -11.6189,-11.41566 -7.606,-15.42859 4.4418,-4.44185 2.2261,-8.5241 -6.6027,-12.16497 -4.8553,-2.00223 -10.3249,-5.29467 -12.1547,-7.31654 -2.0851,-2.30413 -6.0132,-3.67609 -10.5248,-3.67609 -8.1542,0 -11.9374,-2.82381 -11.9374,-8.91001 0,-2.34414 -2.5945,-6.08874 -5.9244,-8.5506 -4.835,-3.57471 -5.9242,-5.80729 -5.9242,-12.14301 0,-5.20124 -1.294,-8.96851 -3.9212,-11.41609 -3.7394,-3.48378 -3.7907,-4.2882 -1.106,-17.35608 1.5484,-7.53666 3.7145,-23.52998 4.8136,-35.54072 1.0991,-12.01074 2.9361,-24.30415 4.0823,-27.31868 1.1461,-3.01455 1.7022,-6.09838 1.2359,-6.85297 -1.3922,-2.25256 4.0784,-25.69361 6.7465,-28.90849 1.3579,-1.63617 5.2452,-3.68913 8.6385,-4.56215 6.9304,-1.78302 8.879,-7.83844 5.2277,-16.2458 l -2.111,-4.86087 1.0506,5.35158 c 0.7546,3.84404 0.072,5.855 -2.4231,7.13854 -5.1772,2.66331 -8.1684,0.78982 -11.5596,-7.24045 -6.6522,-15.75189 -0.3801,-32.43325 19.7715,-52.58483 12.9457,-12.94565 44.556,-32.64269 52.386,-32.64269 1.1456,0 2.083,-0.74872 2.083,-1.6638 0,-0.91508 3.0296,-3.29539 6.7325,-5.28954 6.5967,-3.55245 6.7113,-3.83263 5.676,-13.86423 -1.2209,-11.82989 -2.1332,-10.91002 20.1751,-20.34234 13.2918,-5.62001 19.1026,-6.87932 36.6281,-7.9381 21.9343,-1.32513 28.4318,-3.75093 36.087703,-13.47327 1.9796,-2.51385 4.8676,-4.57063 6.418,-4.57063 1.5503,0 2.8188,-0.7274 2.8188,-1.61645 0,-0.88906 5.754,-5.75583 12.7868,-10.81503 7.0326,-5.05922 13.3393,-11.21879 14.0147,-13.68794 0.7259,-2.65359 6.7661,-8.11831 14.7711,-13.36379 7.4488,-4.88093 14.6939,-10.62214 16.1004,-12.75823 1.4064,-2.13609 4.9326,-6.36256 7.8359,-9.39213 5.4515,-5.68862 11.7336,-6.6189 42.6805,-6.32028 6.923,0.0668 8.2322,-0.48101 7.1911,-3.00902 -0.7,-1.69989 -2.0611,-5.81361 -3.0247,-9.14161 -1.7441,-6.02341 -1.8059,-6.04702 -13.6141,-5.1929 -13.1390001,0.95039 -17.7764001,-1.26808 -17.7764001,-8.50381 0,-2.44932 -1.3232,-5.55145 -2.9403999,-6.89362 -1.6173,-1.34217 -2.4535,-3.22827 -1.8582,-4.19133 0.5951,-0.96305 0.119,-1.75101 -1.0581,-1.75101 -1.1771,0 -2.9581,-2.15117 -3.9577,-4.78037 -1.3104,-3.44672 -2.8965,-4.49822 -5.6851,-3.769 -5.4896,1.4356 -7.5067,-5.9828 -3.3511,-12.32504 2.9868,-4.55849 2.9321,-5.48723 -0.8236,-13.97767 -2.2126,-5.0021 -4.0545,-11.86987 -4.0931,-15.26169 -0.068,-6.00855 -0.1336,-6.05234 -2.5481,-1.70467 -1.9384,3.49043 -2.9983,3.94202 -4.8669,2.0735 -1.3138,-1.31383 -2.3887,-3.49132 -2.3887,-4.83885 0,-1.87712 -1.2369,-1.80839 -5.289,0.29388 -2.9089,1.50918 -6.009,2.29897 -6.8891,1.75509 -0.88,-0.54388 -1.0708,0.39023 -0.424,2.07583 0.7097,1.84934 0.1047,3.0647 -1.5253,3.0647 -2.4784,0 -7.3673,5.03529 -14.1914,14.61618 -1.489,2.09038 -3.2037,2.89875 -3.8683,1.8235 -0.6565,-1.06233 2.3764,-6.25171 6.7397,-11.53196 4.3633,-5.28026 8.842,-11.29833 9.9525,-13.37347 1.856,-3.46775 1.4885,-3.65641 -4.5424,-2.33182 l -6.5617,1.44119 7.7252,-8.651449 c 4.2489,-4.758296 8.9007,-9.362085 10.3374,-10.230649 1.4366,-0.868554 2.6121,-3.755626 2.6121,-6.415714 0,-6.820233 13.7723,-20.639134 20.5695,-20.639134 2.8786,0 9.6504,-2.238138 15.0487,-4.973652 8.5711999,-4.343325 11.62859986,-4.852734 24.1252,-4.019564 7.8706,0.524745 18.5891,2.249018 23.8189,3.831736 8.2462,2.495546 10.4011,2.504844 16.2284,0.07 7.9101,-3.305057 15.9687,-3.646568 17.7573,-0.752519 0.6986,1.130301 2.8474,1.554474 4.7752,0.942602 5.4417,-1.727105 9.517,0.70787 14.3152,8.55313 2.425,3.965179 5.4539,8.28432 6.7308,9.598088 1.8623,1.916172 2.6609,27.663275 1.064,34.303365 -0.6048,2.51537 -17.9383,13.66838 -21.3334,13.7268 -3.0193,0.0519 -2.6973,0.88003 1.9226,4.94434 4.5433,3.99687 5.4384,6.22312 4.9369,12.27986 -0.5678,6.85882 -1.0385,7.36666 -6.4602,6.96902 -11.2287,-0.82355 -11.6689,6.80321 -1.6962,29.39018 8.8126,19.95934 12.9357,24.89721 22.1768,26.5593 10.084697,1.81382 12.308997,4.15725 10.928997,11.51412 -1.0148,5.40906 -0.1087,7.3229 6.6836,14.11514 10.0552,10.05515 13.1803,20.89677 11.0468,38.32326 -2.121,17.32468 -1.9989,23.67354 0.8493,44.16684 2.0485,14.73971 3.4716,18.86744 9.0013,26.10949 6.2714,8.21332 6.5255,9.20675 5.6243,21.9877 -0.8711,12.35479 -0.547,13.81182 4.2092,18.91806 2.8341,3.0428 5.153,6.76913 5.153,8.28077 0,1.51162 1.6411,3.90961 3.647,5.32886 2.0058,1.41922 4.7149,5.83483 6.0202,9.81243 1.3053,3.9776 4.6493,9.5081 7.4313,12.28999 4.1594,4.1595 5.1976,7.35365 5.8446,17.98114 0.7428,12.20325 0.5128,13.04788 -4.1287,15.16265 -6.0333,2.749 -7.9448,8.02521 -4.7567,13.13015 2.0004,3.20326 1.6893,4.73737 -1.881,9.27626 -2.3527,2.99106 -4.2777,7.06446 -4.2777,9.05199 0,4.40681 -5.6899,7.70224 -13.2985,7.70224 -3.1126,0 -6.6302,0.97096 -7.8168,2.1577 -1.5605,1.56043 -3.2738,1.56043 -6.1895,0 -5.5413,-2.96562 -16.1533,-2.7606 -16.0851,0.31074 0.03,1.35765 2.6962,5.06033 5.9243,8.22818 7.3268,7.18988 7.322,9.23393 -0.042,17.62057 -6.6596,7.5849 -6.6247,8.25211 2.0786,39.81209 2.3962,8.68894 4.7884,18.90834 5.316,22.70976 0.5276,3.80141 1.7112,7.85358 2.6303,9.00481 3.1063,3.89087 9.3163,35.30923 10.7106,54.18757 0.762,10.31813 2.685,28.09098 4.2733,39.49523 1.5882,11.40425 3.6848,36.28625 4.6591,55.29333 1.6577,32.34024 2.5432,38.81309 7.4586,54.52438 2.9969,9.57866 6.1601,14.73455 16.222,26.44086 20.1297,23.41944 24.1948,29.87928 24.1548,38.38404 -0.02,4.41256 0.7348,8.98822 1.6791,10.16811 0.9441,1.17989 3.085,6.02331 4.7572,10.76316 1.6724,4.73984 4.2243,9.99498 5.6712,11.67806 7.51,8.73674 7.2256,23.70882 -0.599,31.53339 -2.5199,2.51994 -3.918,5.71272 -3.2564,7.43668 1.7402,4.53509 -2.6239,18.78135 -7.299,23.82667 -3.0236,3.26304 -6.3432,4.44322 -12.4978,4.44322 -9.8394,0 -14.6185,1.51809 -14.6527,4.65448 -0.054,4.96447 -15.5139,18.82053 -23.3544,20.93177 -4.4433,1.19647 -8.4707,3.66032 -9.0887,5.56028 -1.9112,5.87548 -14.9822,18.22253 -19.2909,18.22253 -2.4806,0 -8.1192,4.3911 -14.1927,11.0527 -10.776897,11.8204 -17.153997,14.3433 -36.736297,14.5333 -4.8875,0.047 -15.9956,2.3388 -24.6845,5.0919 -24.5477,7.7778 -41.9166001,10.7751 -48.7125001,8.406 -4.781,-1.6666 -7.7827999,-1.1203 -17.2911999,3.1467 -9.3726,4.2063 -14.4931,5.1636 -27.6187,5.1636 l -16.1128,0 1.2951,9.7635 c 1.3294,10.0213 -3.0526,33.4485 -8.1468,43.5552 -6.1944,12.289 -14.0634,17.3338 -22.6337,14.5104 l 0,0 z M -193.07096,404.32408 c 19.3393,0.0906 36.2343,-0.4976 37.5444,-1.30739 4.1939,-2.59194 0.182,-14.96857 -8.4943,-26.2049 -9.2991,-12.04288 -6.149,-11.60158 -39.5342,-5.53843 -16.5018,2.99693 -21.2197,5.83552 -25.0439,15.06797 -1.3171,3.17984 -3.0744,5.78152 -3.905,5.78152 -1.367,0 -7.8845,11.96748 -7.8845,14.47762 0,0.57464 2.735,0.26041 6.0777,-0.69826 3.3427,-0.95869 21.9006,-1.66883 41.2398,-1.57813 z M 67.062243,378.79322 c 8.2685,-7.24928 10.6422,-16.57219 5.8782,-23.08725 -2.5191,-3.44516 -2.8614,-3.45101 -7.9222,-0.13506 -7.6263,4.99694 -10.1486,17.69647 -4.8084,24.20973 2.5241,3.07846 2.1542,3.13175 6.8524,-0.98739 l 0,-3e-5 z m -131.479,-24.66811 c 10.1044,-9.97807 17.2983,-25.6819 13.7329,-29.97801 -1.8987,-2.28781 -3.9488,-1.83901 -12.5533,2.74821 -8.1409,4.34012 -11.4155,7.63933 -15.7145,15.83293 -3.2346,6.16497 -5.4306,13.47388 -5.4306,18.07464 l 0,7.72426 5.6485,-2.92095 c 3.1067,-1.60651 9.5493,-6.77299 14.317,-11.48108 z m 130.1164,-212.79703 c 0,-1.08611 -0.3919,-1.97475 -0.8709,-1.97475 -0.4789,0 -1.42,0.88864 -2.0912,1.97475 -0.6712,1.08612 -0.2795,1.97477 0.8708,1.97477 1.1502,0 2.0913,-0.88865 2.0913,-1.97477 z m -117.6644,-40.76193 c 1.0401,-2.710304 0.7511,-2.832473 -1.7634,-0.745583 -3.4268,2.843913 -3.7834,3.987043 -1.2439,3.987043 0.9699,0 2.3232,-1.45866 3.0073,-3.24146 l 0,0 z"
       id="path3826"
       inkscape:connector-curvature="0" />
    <path
       style="fill:#000000;fill-opacity:1;stroke:none"
       d="m -559.71426,1088.2425 c -8.6429,-1.1947 -28.7322,-2.2994 -44.6429,-2.4548 -15.9107,-0.1555 -32.9464,-1.0862 -37.8571,-2.0683 -8.0709,-1.6142 -8.9286,-2.802 -8.9286,-12.3646 0,-5.8183 3.3693,-18.8362 7.4873,-28.9285 l 7.4874,-18.3498 -3.5225,-35.71429 c -1.9373,-19.6428 -4.1008,-43.4285 -4.8078,-52.8571 -0.707,-9.42857 -2.3769,-19.71428 -3.7109,-22.85714 -5.5023,-12.963 -9.3205,-42.65497 -8.0437,-62.55023 l 1.3623,-21.22785 -27.4118,-1.14803 c -15.0764,-0.63143 -31.0889,-2.6962 -35.5833,-4.58837 l -8.1715,-3.44029 1.4466,-30.66549 c 0.7956,-16.866 4.8951,-48.0226 9.11,-69.23688 4.2149,-21.21429 10.0269,-52.07143 12.9156,-68.57143 15.2617,-87.17369 34.9137,-144.70454 56.4188,-165.16469 4.8859,-4.64854 10.8268,-15.83565 15.0136,-28.27154 l 6.9284,-20.57908 -6.756,-12.27806 c -3.7158,-6.75294 -10.6088,-18.06377 -15.3178,-25.1352 -4.709,-7.07143 -10.8837,-19.28572 -13.7215,-27.14286 -2.8378,-7.85714 -6.5837,-13.93688 -8.3242,-13.51051 -1.7404,0.42637 -8.2251,-0.58749 -14.4103,-2.25297 -13.1987,-3.55406 -15.0044,-11.29598 -5.0949,-21.84418 7.4979,-7.98111 7.4391,-16.69785 -0.2738,-40.62169 -8.9483,-27.75551 -8.3024,-30.52306 11.4581,-49.09426 16.5295,-15.53471 17.245,-16.77221 15.3963,-26.62699 -1.2829,-6.83846 -0.8647,-10.33511 1.2362,-10.33511 1.7463,0 3.1751,-1.79102 3.1751,-3.98003 0,-2.18902 1.9602,-4.73222 4.3559,-5.65155 3.1343,-1.20275 3.8187,-3.81179 2.4405,-9.30326 -1.3498,-5.37811 -0.9487,-7.03426 1.3584,-5.60841 1.8006,1.11284 3.2738,0.52419 3.2738,-1.3081 0,-1.837 1.9891,-2.56816 4.4341,-1.62992 2.6232,1.0066 3.6966,0.50822 2.6284,-1.22026 -1.117,-1.8072 0.9423,-2.42344 5.3983,-1.61543 10.909,1.97818 12.8958,-3.0305 9.5078,-23.96877 -1.6527,-10.21428 -3.5248,-19.21428 -4.1601,-20 -0.6354,-0.78571 -6.5093,-1.42857 -13.0533,-1.42857 -9.9933,0 -11.8981,-0.9148 -11.8981,-5.71428 0,-9.38166 -8.6281,-15.84581 -18.5119,-13.86905 -5.0445,1.00891 -8.6309,0.52737 -8.6309,-1.15889 0,-1.58679 -6.9815,-3.75735 -15.5143,-4.82346 -8.5329,-1.06612 -17.0336,-3.76899 -18.8905,-6.0064 -3.9439,-4.752019 -1.3559,-18.215149 3.7756,-19.641939 22.8393,-6.35033 29.6538,-8.86642 32.1969,-11.88801 1.648,-1.95799 13.5992,-5.11033 26.5582,-7.00519 l 23.5619,-3.4452 -0.8439,-16.08093 c -0.8158,-15.544393 -0.5896,-16.110342 6.7784,-16.96234 8.0772,-0.933999 32.0207,9.82303 47.1824,21.19749 16.2736,12.20856 22.4979,13.23975 31.9432,5.29209 4.5995,-3.87021 10.3558,-7.03675 12.7917,-7.03675 2.436,0 9.9647,6.46876 16.7304,14.375 11.6535,13.61791 12.8657,14.28184 23.0157,12.60601 10.1587,-1.67726 10.7143,-1.3714 10.7143,5.89823 0,4.21697 -2.5759,11.28469 -5.7242,15.70604 -3.1482,4.42136 -4.991,9.949359 -4.0949,12.284449 0.896,2.33509 0.1976,9.56195 -1.552,16.0597 -2.7996,10.39668 -2.4769,12.80326 2.6897,20.05901 3.229,4.53472 6.6381,12.08086 7.5758,16.7692 1.4085,7.04264 0.6236,8.86742 -4.5157,10.49858 -3.4213,1.08587 -5.6204,3.53831 -4.8869,5.44987 1.4653,3.81836 -4.2704,28.88207 -7.3036,31.91526 -1.044,1.04402 -6.1421,2.80432 -11.3289,3.91178 l -9.4307,2.01358 15,7.70335 c 8.25,4.23685 15,8.75015 15,10.02957 0,1.27942 3.4131,4.15062 7.5846,6.38044 10.718,5.72909 15.9657,19.66861 12.7658,33.91017 -2.2585,10.0518 -1.3568,13.83343 7.8344,32.85911 5.7126,11.82501 11.9937,21.51592 13.958,21.53535 1.9643,0.02 3.5911,2.92817 3.6152,6.46389 0.082,12.00048 3.6667,14.0574 23.1173,13.2636 20.0767,-0.8194 23.2378,2.2842 9.0436,8.87925 -5.0731,2.35715 -9.2596,5.57143 -9.3033,7.14286 -0.044,1.57143 -1.8542,6.25874 -4.0235,10.41623 -3.9407,7.55277 -3.926,7.56834 17.54,18.57143 15.5692,7.98054 22.2179,13.1032 24.1496,18.60691 1.4936,4.25549 5.5581,8.32057 9.2444,9.24577 3.6183,0.90815 11.5695,6.5974 17.6692,12.64283 6.0997,6.0454 13.6427,12.3908 16.7622,14.10092 4.2525,2.33125 5.5987,5.89462 5.3799,14.24051 -0.4464,17.02617 -5.563,24.55886 -15.3517,22.60111 -5.2267,-1.04531 -9.2734,-0.14828 -11.515,2.55269 -1.9009,2.29046 -5.9002,4.16446 -8.8874,4.16446 -5.038,0 -5.306,1.70703 -3.7002,23.57143 0.9521,12.96428 2.2896,25.34008 2.9721,27.50174 1.2371,3.91848 12.5666,3.5118 37.5995,-1.34963 10.9804,-2.1324 17.831,2.36457 17.831,11.70503 0,10.51411 -7.5934,14.28497 -28.7829,14.29354 -10.6304,0.006 -20.2426,0.9224 -21.3604,2.04023 -1.1179,1.11786 -0.6306,7.54291 1.0829,14.27791 2.3606,9.2788 2.278,13.08395 -0.3407,15.70643 -3.4962,3.50117 -3.4162,11.62012 1.9092,193.68189 0.9652,33 3.1097,88.92857 4.7654,124.28571 1.6558,35.35717 3.268,71.96187 3.5828,81.34387 l 0.5722,17.05809 31.4286,10.4708 c 21.07,7.0197 34.4708,9.9879 40.659,9.0056 10.9959,-1.7455 22.647,4.8871 26.5312,15.1034 3.5188,9.2549 1.1663,14.4575 -8.1098,17.9355 -11.2388,4.2139 -67.1746,10.1397 -78.4464,8.3105 -8.4174,-1.3659 -10.3334,-0.508 -14.4574,6.4734 -5.9995,10.1562 -15.732,8.6649 -18.0171,-2.7609 l -1.5491,-7.7457 -33.8839,0.2597 c -30.6705,0.2352 -34.3056,-0.282 -38.3297,-5.4544 -2.655,-3.4126 -3.8141,-8.5914 -2.8778,-12.8572 0.8623,-3.9285 1.6287,-9.0714 1.7031,-11.4285 0.074,-2.3572 2.0378,-11.2097 4.3631,-19.6724 3.443,-12.5303 3.6059,-18.0994 0.8777,-29.99999 -5.7774,-25.2013 -22.6756,-73.93082 -31.462,-90.72757 -8.2634,-15.79671 -8.4301,-16.97885 -8.4634,-60 -0.035,-45.54334 -4.0509,-70.62348 -12.6913,-79.26394 -3.9854,-3.98537 -4.4176,-1.14291 -4.4176,29.05177 l 0,33.4694 -32.7991,0 -32.7991,0 -5.3683,10.71429 c -7.8875,15.74194 -13.3192,66.7186 -13.3192,124.99995 0,31.5746 0.6331,35.6414 8.0064,51.42859 15.9631,34.179 38.3899,48.1746 72.4062,45.1857 15.702,-1.3797 17.2212,-0.9517 24.7181,6.965 7.1049,7.5025 7.6141,9.2555 4.6062,15.8571 -1.8599,4.0821 -7.2535,8.7718 -11.9857,10.4214 -9.5929,3.3442 -49.3491,3.3563 -73.4655,0.023 z m 179.827,-121.30879 c -4.7793,-57.16682 -13.8323,-190.00937 -16.9397,-248.57145 -3.9848,-75.0966 -7.8229,-110.11089 -12.5031,-114.06595 -2.0027,-1.69231 -5.7492,-6.48805 -8.3258,-10.65725 -2.5765,-4.1692 -8.8061,-10.51512 -13.8435,-14.10209 l -9.1589,-6.52171 1.9886,6.9592 c 6.285,21.99465 15.987,70.27094 14.7631,73.46028 -1.0701,2.78869 -2.8597,2.98409 -7.0061,0.765 -3.0628,-1.63917 -6.4256,-2.98034 -7.4729,-2.98034 -6.4888,0 10.4636,67.5908 20.9591,83.56577 5.8005,8.82892 6.886,13.5934 6.1836,27.14286 -1.3387,25.82414 -0.9747,34.48991 2.7306,65.00566 1.908,15.71428 5.2407,47.85714 7.4059,71.42857 4.1996,45.71875 7.9458,69.04225 13.3083,82.85715 3.3869,8.7253 8.3308,16.4866 9.5988,15.069 0.3854,-0.4308 -0.3742,-13.6404 -1.688,-29.3547 z m -27.2665,-452.14288 c -1.1128,-13.75 -3.5528,-26.28572 -5.4222,-27.85714 -1.8695,-1.57143 -5.0392,-7.03572 -7.0439,-12.14286 -3.9972,-10.18332 -6.0017,-10.99794 -14.304,-5.81306 -4.3641,2.72546 -7.627,2.72546 -15.1641,0 -15.3098,-5.53611 -17.2386,-4.12177 -7.9272,5.81306 4.7867,5.10714 8.709,10.1718 8.7162,11.2548 0.01,1.083 4.9817,7.70974 11.0543,14.72606 6.0726,7.01634 13.9016,18.66597 17.3978,25.88805 3.4961,7.22212 8.2376,13.13109 10.5365,13.13109 3.5041,0 3.8528,-4.04186 2.1566,-25 z"
       id="path4358"
       inkscape:connector-curvature="0" />
    <path
       sodipodi:type="star"
       style="opacity:0.5;fill:#ea5f34;fill-opacity:1;stroke:#edc951;stroke-width:20;stroke-linejoin:round;stroke-miterlimit:4;stroke-opacity:1;stroke-dasharray:none"
       id="path5680"
       sodipodi:sides="4"
       sodipodi:cx="-702.85712"
       sodipodi:cy="-339.47388"
       sodipodi:r1="385.92587"
       sodipodi:r2="272.89081"
       sodipodi:arg1="0.80110368"
       sodipodi:arg2="1.5865018"
       inkscape:flatsided="true"
       inkscape:rounded="0.06"
       inkscape:randomized="0"
       d="m -434.28569,-62.331016 c -23.51635,22.789042 -522.92525,14.944922 -545.71429,-8.571429 -22.78902,-23.516352 -14.94492,-522.925255 8.57143,-545.714295 23.51635,-22.78904 522.92525,-14.94492 545.71429,8.57143 22.78905,23.51635 14.94493,522.925253 -8.57143,545.714294 z"
       transform="matrix(1.7764846,0,0,2.0255489,990.95047,1230.1965)" />
    <path
       style="opacity:0.5;fill:#edc951;fill-opacity:1;stroke:#000000;stroke-width:0.93585098px;stroke-linecap:butt;stroke-linejoin:miter;stroke-opacity:1"
       d="m -753.68313,908.88952 c -2.11335,57.91239 15.49802,163.28078 15.49802,163.28078 l 947.4901,6.4347 c 11.27123,-18.4997 19.0202,-170.51982 19.0202,-170.51982 z"
       id="path3939"
       inkscape:connector-curvature="0"
       sodipodi:nodetypes="ccccc" />
    <text
       xml:space="preserve"
       style="font-size:180px;font-style:normal;font-variant:normal;font-weight:normal;font-stretch:normal;text-align:center;line-height:125%;letter-spacing:0px;word-spacing:0px;writing-mode:lr-tb;text-anchor:middle;fill:#ffffff;fill-opacity:1;stroke:#000000;stroke-width:5;stroke-miterlimit:4;stroke-opacity:1;stroke-dasharray:none;font-family:Almendra;-inkscape-font-specification:Almendra"
       x="-255.00577"
       y="1053.4949"
       id="text5761"
       sodipodi:linespacing="125%"><tspan
         sodipodi:role="line"
         id="tspan5763"
         x="-255.00577"
         y="1053.4949"
         style="font-size:180px;font-weight:normal;text-align:center;text-anchor:middle;fill:#000000;fill-opacity:1;-inkscape-font-specification:Almendra">Role Play</tspan></text>
  </g>
</svg>
