<?xml version="1.0" encoding="UTF-8" standalone="no"?>
<!-- Created with Inkscape (http://www.inkscape.org/) -->

<svg
   xmlns:dc="http://purl.org/dc/elements/1.1/"
   xmlns:cc="http://creativecommons.org/ns#"
   xmlns:rdf="http://www.w3.org/1999/02/22-rdf-syntax-ns#"
   xmlns:svg="http://www.w3.org/2000/svg"
   xmlns="http://www.w3.org/2000/svg"
   xmlns:sodipodi="http://sodipodi.sourceforge.net/DTD/sodipodi-0.dtd"
   xmlns:inkscape="http://www.inkscape.org/namespaces/inkscape"
   width="1218.4034"
   height="1068.5669"
   id="svg3896"
   version="1.1"
   inkscape:version="0.48.3.1 r9886"
   sodipodi:docname="social-strategy.png">
  <defs
     id="defs3898" />
  <sodipodi:namedview
     id="base"
     pagecolor="#ffffff"
     bordercolor="#ffffff"
     borderopacity="0.0"
     inkscape:pageopacity="0.0"
     inkscape:pageshadow="0"
     inkscape:zoom="0.5"
     inkscape:cx="470.58303"
     inkscape:cy="456.8228"
     inkscape:document-units="px"
     inkscape:current-layer="layer1"
     showgrid="false"
     fit-margin-top="0"
     fit-margin-left="0"
     fit-margin-right="0"
     fit-margin-bottom="0"
     inkscape:window-width="1600"
     inkscape:window-height="841"
     inkscape:window-x="0"
     inkscape:window-y="27"
     inkscape:window-maximized="1" />
  <metadata
     id="metadata3901">
    <rdf:RDF>
      <cc:Work
         rdf:about="">
        <dc:format>image/svg+xml</dc:format>
        <dc:type
           rdf:resource="http://purl.org/dc/dcmitype/StillImage" />
        <dc:title></dc:title>
      </cc:Work>
    </rdf:RDF>
  </metadata>
  <g
     inkscape:label="Layer 1"
     inkscape:groupmode="layer"
     id="layer1"
     transform="translate(515.44516,-66.879671)">
    <path
       style="fill:#000000;fill-opacity:1;stroke:#ffffff;stroke-width:3.22917891;stroke-linejoin:round;stroke-miterlimit:4;stroke-opacity:1;stroke-dasharray:none"
       d="m 107.11142,863.74868 c -0.44401,-0.47756 -13.885464,-1.25311 -29.8699,-1.72343 -28.40736,-0.83584 -49.99904,-1.99133 -62.96899,-3.36981 -3.5521,-0.37754 -11.18103,-1.11566 -16.95319,-1.64029 -5.77216,-0.52463 -13.76437,-1.34205 -17.76048,-1.81649 -3.99611,-0.47445 -10.17192,-1.14493 -13.72401,-1.48995 -3.5521,-0.34502 -9.36462,-1.06251 -12.91672,-1.59442 -3.55209,-0.53191 -7.5482,-1.02402 -8.88024,-1.09359 -1.33204,-0.0696 -12.23051,-1.87319 -24.21884,-4.00801 -11.98833,-2.13484 -24.70322,-4.26828 -28.25532,-4.74097 -3.55209,-0.47269 -7.5482,-1.24188 -8.88024,-1.70932 -1.33204,-0.46742 -4.74027,-1.15172 -7.57386,-1.52062 -2.83352,-0.3689 -13.732,-2.90439 -24.21884,-5.6344 -10.48676,-2.73003 -20.88326,-5.22079 -23.10332,-5.53504 -2.22006,-0.31424 -11.8481,-3.16496 -21.39557,-6.33492 -9.54756,-3.16997 -18.06217,-5.76358 -18.92146,-5.76358 -3.15216,0 -47.93563,-18.12111 -56.13023,-22.71243 -4.64873,-2.60458 -9.26185,-4.73559 -10.25152,-4.73559 -2.14449,0 -21.42431,-11.57554 -22.20262,-13.33043 -0.29789,-0.67155 -1.10107,-0.87523 -1.78485,-0.45261 -0.68378,0.42262 -4.1884,-1.75256 -7.78805,-4.83371 -3.59965,-3.08116 -6.96873,-5.6021 -7.48677,-5.6021 -2.20545,0 -19.17995,-15.87772 -27.77958,-25.98468 -5.09729,-5.99079 -12.49518,-9.53628 -19.89791,-9.53628 -4.06029,0 -22.70896,-10.37138 -22.72341,-12.63752 0,-0.59756 -3.08112,-5.0826 -6.83835,-9.96674 l -6.83141,-8.88024 -0.4072,-20.59023 c -0.36013,-18.21208 -0.83466,-21.28907 -4.10824,-26.64072 -2.03559,-3.32779 -4.46547,-7.50363 -5.39959,-9.27968 -0.9342,-1.77605 -3.2739,-3.94639 -5.1993,-4.82299 -1.9254,-0.87659 -3.50075,-2.14808 -3.50075,-2.82553 0,-0.67745 -1.05376,-1.23172 -2.34164,-1.23172 -1.28796,0 -2.92273,-0.90939 -3.63283,-2.02087 -0.71017,-1.11148 -3.24193,-3.02534 -5.6262,-4.25304 -2.38418,-1.22768 -6.99254,-4.42276 -10.24069,-7.10019 l -5.90577,-4.86802 0.86042,-11.46495 c 0.73972,-9.85754 2.3158,-21.61043 5.10985,-38.10569 2.63461,-15.55413 2.64018,-15.4714 -1.17921,-17.55013 -2.02656,-1.10298 -6.18655,-5.6706 -9.24442,-10.15031 -7.33152,-10.74048 -8.63353,-23.48602 -3.48549,-34.1204 2.74593,-5.67234 5.20447,-7.96895 12.19532,-11.39204 4.81583,-2.35807 10.56248,-4.28741 12.77027,-4.28741 2.20787,0 6.18476,-1.82634 8.83762,-4.05856 7.44551,-6.26505 15.32955,-8.85816 26.93215,-8.85816 10.11694,0 10.75252,-0.23042 13.3722,-4.84791 1.5127,-2.66637 4.02266,-5.25855 5.57768,-5.76042 3.8252,-1.23458 6.52746,-6.68189 5.42469,-10.93536 -0.49656,-1.91534 -2.73802,-5.5935 -4.98101,-8.1737 -2.95599,-3.40031 -4.07821,-6.5397 -4.07821,-11.40846 0,-6.08331 -0.57261,-7.03903 -6.0677,-10.12745 -11.95257,-6.71771 -13.71513,-9.9351 -13.77633,-25.14734 -0.0468,-11.66331 0.47429,-14.33265 3.67634,-18.82955 2.05207,-2.88184 6.25969,-6.29623 9.35025,-7.58757 6.46458,-2.70106 20.2606,-2.4188 26.19252,0.53588 3.24274,1.61523 10.49483,1.94025 10.49483,0.47036 0,-0.18669 5.81255,-0.49949 12.91675,-0.69509 21.45539,-0.59073 32.64522,5.24825 39.65811,20.69397 3.52828,7.77092 3.91142,13.74416 1.25558,19.57313 -1.44748,3.17683 -1.38289,6.15333 0.28441,13.1032 2.26422,9.43848 1.67675,12.88495 -4.46611,26.19954 -2.69588,5.84326 -10.55239,10.87211 -15.99178,10.23611 -5.57688,-0.65207 -8.62659,7.92392 -4.68708,13.18041 3.77451,5.0364 9.67729,4.89532 15.30946,-0.36589 7.32636,-6.84384 18.90967,-10.38636 26.04494,-7.96532 15.29848,5.19083 20.8102,14.43041 20.86462,34.97602 0.0355,13.45697 -1.88278,20.10433 -7.03622,24.38131 -1.90038,1.57718 -2.07758,2.98118 -0.80028,6.34077 0.90232,2.37329 1.54258,4.31506 1.42286,4.31506 -0.1198,0 0.12368,1.08984 0.54089,2.42188 0.41729,1.33204 2.63969,8.69067 4.93871,16.35253 2.29909,7.66186 5.49033,16.85714 7.09176,20.43395 l 2.91159,6.5033 2.12996,-4.812 c 1.17155,-2.64658 3.86153,-6.68036 5.97794,-8.96394 4.0133,-4.33044 4.71331,-6.26989 2.59101,-7.17869 -2.20085,-0.94242 -12.78391,-24.43056 -15.01076,-33.31505 -2.09065,-8.34079 -1.98965,-8.99654 3.9773,-25.83343 3.36731,-9.50147 6.25912,-18.00198 6.42623,-18.89001 0.16711,-0.88802 0.832,-2.45929 1.47743,-3.49172 1.47388,-2.35734 12.59348,-31.07239 13.32295,-34.40487 1.64551,-7.51729 11.33232,-30.96216 15.46752,-37.43578 2.67651,-4.19005 7.17168,-8.64347 10.15206,-10.05776 8.41774,-3.9945 24.71952,-21.42003 25.89365,-27.67868 0.63122,-3.36477 3.2379,-7.30935 7.00958,-10.60732 7.4992,-6.55727 10.35654,-12.67196 7.33395,-15.69459 -1.1751,-1.17508 -2.13651,-4.22142 -2.13651,-6.76966 0,-5.62144 -2.18349,-7.16874 -9.42783,-6.68086 -4.83295,0.32548 -5.40734,-0.0356 -4.65195,-2.92447 0.47404,-1.81269 0.27924,-2.93568 -0.43295,-2.49555 -0.71212,0.44014 -1.71139,-0.28542 -2.22063,-1.61236 -0.57948,-1.51019 -3.05852,-2.41262 -6.62757,-2.41262 -3.13593,0 -5.70168,-0.70153 -5.70168,-1.55897 0,-0.85744 -3.64913,-2.04305 -8.10919,-2.6347 -9.24086,-1.22584 -10.24062,-2.12086 -8.23998,-7.3766 1.01703,-2.67189 3.72163,-4.42223 9.29544,-6.01574 4.32354,-1.23609 9.04154,-3.26445 10.48449,-4.50749 1.44288,-1.24303 3.25929,-2.11439 4.03648,-1.93637 0.7771,0.17804 2.50285,-0.16236 3.83489,-0.75643 1.33204,-0.59406 5.69143,-1.65521 9.68754,-2.35809 7.62748,-1.34162 7.72234,-1.52773 5.62587,-11.03956 -0.94623,-4.29315 -0.58609,-5.25456 2.31314,-6.17474 3.67521,-1.16648 17.89442,3.46445 17.89442,5.82791 0,0.76738 0.97682,1.39523 2.17073,1.39523 1.19391,0 4.28181,1.81552 6.86201,4.0345 5.66551,4.87237 11.71489,5.15632 17.24125,0.80927 2.25787,-1.77605 4.82069,-3.22918 5.69514,-3.22918 0.87444,0 4.34993,3.6192 7.72331,8.04267 5.77338,7.57055 6.47358,7.98827 11.92823,7.11604 4.99985,-0.79952 5.82862,-0.47789 6.04121,2.34448 0.13546,1.7991 -0.77936,4.12242 -2.03309,5.16291 -1.51436,1.25681 -1.80674,2.78334 -0.87107,4.54781 0.77463,1.4608 1.83218,12.41912 2.35013,24.35184 0.87709,20.20726 0.69505,22.2013 -2.6533,29.06261 -1.97725,4.05172 -4.13992,7.60895 -4.80594,7.90496 -2.94737,1.30994 -0.71806,5.39323 5.01633,9.18806 6.35244,4.20385 9.91862,9.73214 9.91862,15.37585 0,1.73427 0.18164,3.15641 0.40365,3.16032 3.28527,0.0578 35.82209,12.41003 40.0517,15.20515 5.13063,3.39052 5.96613,4.97377 7.85074,14.87705 1.15999,6.09549 2.67988,19.56659 3.37755,29.93576 0.96507,14.34366 1.98368,19.83469 4.25867,22.95716 1.64461,2.25727 3.77176,4.12695 4.727,4.15487 2.43277,0.071 7.37286,-5.92427 11.93183,-14.48058 2.12921,-3.99611 5.14835,-9.08206 6.70922,-11.30212 1.56086,-2.22006 5.82541,-12.91325 9.47675,-23.76263 6.74355,-20.03731 7.71785,-23.50119 8.91791,-31.70525 0.37076,-2.53458 1.18923,-6.1674 1.81882,-8.07295 0.62961,-1.90555 1.19946,-6.6532 1.26637,-10.55034 0.13272,-7.73684 4.31491,-12.38391 12.23105,-13.5909 2.22006,-0.3385 5.95696,-1.40814 8.30422,-2.37699 2.34726,-0.96885 7.06993,-2.24659 10.49483,-2.83945 7.40299,-1.28146 28.024045,-10.324 28.024045,-12.28882 0,-0.75657 0.9632,-1.37558 2.140446,-1.37558 1.177229,0 3.720207,-1.68159 5.651063,-3.73688 4.873008,-5.18709 4.590213,-12.79722 -0.67104,-18.05848 -2.299918,-2.29991 -3.784791,-5.21594 -3.299704,-6.48005 0.485087,-1.2641 0.187147,-2.7278 -0.662095,-3.25266 -2.048203,-1.26585 -1.988092,-11.60085 0.07492,-12.87583 0.989953,-0.61183 1.064257,-2.06029 0.191248,-3.72811 -0.785239,-1.50016 -1.888795,-8.44682 -2.452351,-15.43703 -0.56354,-6.99021 -1.304314,-13.16602 -1.646155,-13.72401 -1.472941,-2.40423 -2.412971,-13.12396 -1.150928,-13.12396 0.762862,0 3.831599,2.13436 6.819429,4.74302 2.987814,2.60866 5.62615,4.54928 5.862962,4.31247 0.236795,-0.2368 0.800029,-4.31177 1.251629,-9.05549 0.451601,-4.74371 1.163635,-8.96747 1.582298,-9.38613 0.418663,-0.41866 3.098978,1.52441 5.956253,4.31793 l 5.19507,5.07913 4.76796,-8.8857 c 2.62237,-4.88714 5.264,-8.88571 5.87026,-8.88571 0.60627,0 2.80383,3.63283 4.88347,8.07295 2.07964,4.44012 4.27093,8.07294 4.86953,8.07294 1.41186,0 6.4326,-5.54513 6.4326,-7.10446 0,-0.65952 1.09193,-2.29107 2.42652,-3.62566 2.07407,-2.07406 2.55478,-2.0923 3.30949,-0.12557 0.48562,1.26552 0.7084,2.95428 0.49508,3.75279 -0.6812,2.54973 2.0463,11.94667 3.46756,11.94667 0.75301,0 2.69332,-1.66894 4.31182,-3.70877 1.6185,-2.03982 3.95689,-4.32789 5.19643,-5.08459 1.81565,-1.10839 2.02268,-0.46596 1.06509,3.30513 -1.11887,4.40636 -2.59889,14.02144 -2.70871,17.59765 -0.0273,0.88803 0.80224,10.21108 1.84336,20.71788 1.87139,18.8859 1.2416,30.14169 -1.6865,30.14169 -2.73974,0 -7.60416,11.95058 -6.89299,16.93425 0.68223,4.78099 7.76461,15.78164 14.42873,22.41133 1.9024,1.89257 9.16806,5.56041 16.14589,8.15074 6.97784,2.59034 14.14011,5.47085 15.91616,6.40115 3.32815,1.74329 4.2217,2.03021 7.6693,2.46269 5.15972,0.64725 8.03791,5.02014 8.80166,13.37251 0.43124,4.71621 2.22115,12.57103 3.97755,17.45516 1.75642,4.88413 3.38436,9.60681 3.61765,10.49483 0.52366,1.99321 2.80974,7.32619 10.84657,25.3028 3.44261,7.70036 6.2593,14.72775 6.2593,15.61642 0,2.79707 13.12982,12.99297 19.20633,14.91459 3.20089,1.01224 6.54637,2.74217 7.43439,3.84433 1.08457,1.34606 1.43578,-9.37229 1.06985,-32.65085 -0.32919,-20.9425 0.20403,-39.92958 1.34763,-47.98585 l 1.89235,-13.33115 7.53262,-3.4892 c 4.14294,-1.91906 9.09634,-3.77547 11.00756,-4.12534 6.25889,-1.14578 13.47846,-5.75205 13.46831,-8.59313 -0.006,-1.53124 -1.20671,-4.96376 -2.66942,-7.62784 -3.23891,-5.89911 -3.61952,-26.97843 -0.55382,-30.67238 1.10769,-1.33468 1.5709,-2.4267 1.02935,-2.4267 -0.54153,0 0.74886,-3.91973 2.86757,-8.71052 2.11872,-4.79078 4.99679,-12.64771 6.39572,-17.45984 3.4378,-11.82565 10.58502,-21.20039 21.473,-28.16535 9.28564,-5.93994 11.18288,-6.17485 26.75822,-3.31302 7.13161,1.31037 23.82421,20.46586 23.82421,27.3393 0,1.35048 1.09469,5.55811 2.43265,9.35029 1.33796,3.79218 2.82926,8.78784 3.31403,11.10147 1.22369,5.84051 2.02208,8.97952 2.40456,9.45402 0.17894,0.22201 0.50699,1.13021 0.729,2.01824 0.222,0.88802 0.58529,1.97787 0.80729,2.42188 0.22201,0.44401 0.58529,1.53386 0.8073,2.42189 0.222,0.88802 0.55006,1.79623 0.729,2.01823 0.97297,1.20709 6.47922,27.68405 6.50862,31.29687 0.0165,2.02405 4.27698,7.8215 10.32856,14.05446 8.73282,8.99458 10.49314,11.78768 11.56602,18.35177 0.69601,4.25836 1.45997,8.46905 1.69767,9.35708 1.36425,5.09648 8.79787,50.55746 9.43508,57.70105 1.90425,21.34828 2.9976,32.9058 3.32405,35.13784 0.58082,3.9711 -4.14508,18.20277 -7.43231,22.38178 -4.18512,5.32054 -3.83955,6.85616 2.59345,11.5246 3.0592,2.22006 5.58217,4.89572 5.60662,5.9459 0.0885,3.80451 8.81913,4.56548 8.96665,0.78156 0.0752,-1.93002 6.13664,-10.70405 9.10921,-13.18582 1.64199,-1.37088 3.28852,-5.57487 3.7942,-9.68754 0.9333,-7.59036 6.52433,-43.06454 7.88866,-50.05227 0.43347,-2.22006 1.16199,-11.50665 1.61895,-20.63686 0.45696,-9.13023 1.39338,-17.48573 2.08092,-18.56778 0.68755,-1.08206 1.29829,-2.33067 1.35719,-2.77469 0.0589,-0.44401 1.34899,-4.94088 2.86683,-9.99303 3.49082,-11.61926 10.80947,-17.31857 25.58102,-19.92095 7.55037,-1.33018 16.88441,-6.6514 20.44936,-11.65792 2.83937,-3.98752 2.94395,-4.87472 0.90357,-7.66511 -2.7643,-3.7804 -7.8108,-20.52563 -10.20669,-33.8677 -1.42889,-7.95715 -1.26902,-11.05896 0.91544,-17.76049 1.4557,-4.46577 3.3661,-9.02779 4.24535,-10.13782 0.87926,-1.11003 1.10958,-2.01824 0.51183,-2.01824 -0.59775,0 0.97762,-2.20895 3.50083,-4.90879 6.61364,-7.07656 20.55521,-10.53388 31.72157,-7.8665 13.55034,3.23687 20.85901,9.11658 26.55489,21.36299 4.89405,10.52244 4.64532,29.36184 -0.60834,46.07697 -3.72467,11.85048 -3.74183,16.37727 -0.0621,16.37727 1.06956,0 3.35317,1.27421 5.07467,2.83158 1.72149,1.55737 8.11513,5.23706 14.20809,8.1771 6.09298,2.94003 11.9055,6.01613 12.91672,6.83578 1.01123,0.81963 5.10814,3.87183 9.10425,6.78268 5.98538,4.35984 14.44628,16.62363 14.19928,20.58136 -0.0278,0.44402 0.12642,1.35222 0.34265,2.01824 0.21616,0.66602 0.54308,1.75587 0.72648,2.42188 0.18342,0.66602 0.86306,3.0701 1.51034,5.34239 0.64727,2.27229 1.38649,5.17855 1.64271,6.45836 0.25624,1.2798 0.84952,3.41676 1.31843,4.7488 1.69947,4.8278 10.95936,44.54379 11.66981,50.05227 0.40088,3.10808 1.85318,12.85341 3.22736,21.65628 2.84744,18.24055 3.23869,41.46112 0.91552,54.33654 -0.87064,4.82521 -1.96865,12.40595 -2.44003,16.84607 -0.85711,8.07332 -1.61508,13.50616 -3.15363,22.60426 -0.45052,2.66407 -1.25092,8.47659 -1.77867,12.91671 -0.52774,4.44012 -1.81661,8.79951 -2.86412,9.68754 -1.04753,0.88802 -2.06365,3.77542 -2.25808,6.41646 -0.24113,3.27542 -2.20327,6.35496 -6.17245,9.68753 l -5.81895,4.88567 1.87735,10.77945 c 1.65268,9.48944 1.48373,12.33601 -1.41178,23.78617 -4.24335,16.7802 -9.43024,25.41522 -24.39038,40.60463 -11.74358,11.92358 -30.83869,27.35618 -33.84841,27.35618 -0.80411,0 -1.7042,0.54493 -2.00022,1.21094 -0.70877,1.59477 -6.1936,4.60404 -30.271,16.60836 -18.56624,9.25662 -24.07513,11.58405 -48.57478,20.52218 -16.09657,5.87244 -45.86328,14.86924 -54.6858,16.52842 -4.7685,0.89678 -12.21579,2.6835 -16.54955,3.97047 -4.33373,1.28699 -7.87953,1.99029 -7.87953,1.56291 0,-0.4274 -1.40746,-0.0239 -3.12767,0.89679 -1.72022,0.92064 -5.1714,1.94051 -7.6693,2.2664 -2.4979,0.32589 -5.63148,1.02936 -6.96352,1.56326 -1.33203,0.5339 -9.32425,2.07186 -17.76048,3.41767 -8.43623,1.34581 -17.15501,2.83945 -19.37507,3.31917 -2.22006,0.47973 -6.94274,1.278 -10.49483,1.77394 -3.5521,0.49593 -8.27478,1.18712 -10.49484,1.53599 -6.04371,0.9497 -18.13345,2.62019 -21.79695,3.01179 -1.77605,0.18984 -5.77216,0.81102 -8.88025,1.38039 -3.10808,0.56939 -11.1003,1.46766 -17.76048,1.9962 -6.66018,0.52853 -13.56255,1.24724 -15.3386,1.59712 -14.32065,2.82123 -150.62908,8.88912 -152.5787,6.79217 l 0,0 z M -394.10083,580.46607 c -0.63631,-13.08809 -1.41325,-24.05291 -1.72664,-24.36625 -1.2371,-1.23718 -6.73583,1.50614 -6.77757,3.38134 -0.0509,2.29154 -2.13917,23.92225 -2.98263,30.89467 -0.43101,3.56317 0.61048,5.78014 4.36125,9.28388 2.71009,2.5316 5.68231,4.60291 6.60496,4.60291 1.13684,0 1.30459,-7.67079 0.52063,-23.79655 l 0,0 z m 110.48162,10.08744 c 0,-4.95041 -1.23677,-8.95957 -4.03647,-13.08523 -2.22006,-3.27143 -4.03647,-7.42091 -4.03647,-9.22103 0,-7.9707 -1.62767,-0.56275 -2.38443,10.8522 -0.66037,9.96123 -0.27117,13.5265 1.87268,17.15581 2.18599,3.70055 3.2714,4.27896 5.64549,3.0084 2.16202,-1.15708 2.9392,-3.4602 2.9392,-8.71015 z m 314.91326,-67.02036 6.26257,0 -0.87378,-12.50875 c -0.48058,-6.87979 -1.09019,-12.72514 -1.35469,-12.98964 -0.26452,-0.2645 -2.32377,2.6398 -4.57613,6.45403 -2.25237,3.81421 -6.72248,9.46054 -9.93356,12.54739 -5.10444,4.90697 -5.47688,5.75532 -2.96294,6.74908 1.58145,0.62516 3.84299,0.82417 5.02566,0.44226 1.18266,-0.3819 4.96845,-0.69437 8.41287,-0.69437 z m 183.07176,-1.4272 c 0.48514,-0.78497 -1.33354,-2.34495 -4.0415,-3.46662 -4.11491,-1.70446 -9.65174,-7.51127 -24.23353,-25.41521 -3.27116,-4.0164 -4.49108,-0.1261 -4.198,13.3876 l 0.29706,13.69695 4.84376,0.80605 c 2.66408,0.44333 8.83988,1.03443 13.72401,1.31356 4.88414,0.27915 9.74557,0.64193 10.80319,0.8062 1.05762,0.16427 2.31987,-0.34357 2.80501,-1.12853 l 0,0 z"
       id="path3222"
       inkscape:connector-curvature="0" />
    <path
       sodipodi:type="star"
       style="opacity:0.5;fill:#00a0b0;fill-opacity:1;stroke:#edc951;stroke-width:20;stroke-linejoin:round;stroke-miterlimit:4;stroke-opacity:1;stroke-dasharray:none"
       id="path5680"
       sodipodi:sides="4"
       sodipodi:cx="-702.85712"
       sodipodi:cy="-339.47388"
       sodipodi:r1="385.92587"
       sodipodi:r2="272.89081"
       sodipodi:arg1="0.80110368"
       sodipodi:arg2="1.5865018"
       inkscape:flatsided="true"
       inkscape:rounded="0.06"
       inkscape:randomized="0"
       d="m -434.28569,-62.331016 c -23.51635,22.789042 -522.92525,14.944922 -545.71429,-8.571429 -22.78902,-23.516352 -14.94492,-522.925255 8.57143,-545.714295 23.51635,-22.78904 522.92525,-14.94492 545.71429,8.57143 22.78905,23.51635 14.94493,522.925253 -8.57143,545.714294 z"
       transform="matrix(0,1.7764846,-2.0255489,0,-593.85673,1849.7618)" />
    <text
       xml:space="preserve"
       style="font-size:144px;font-style:normal;font-variant:normal;font-weight:bold;font-stretch:normal;text-align:center;line-height:125%;letter-spacing:0px;word-spacing:0px;writing-mode:lr-tb;text-anchor:middle;fill:#ffffff;fill-opacity:1;stroke:#000000;stroke-width:5;stroke-miterlimit:4;stroke-opacity:1;stroke-dasharray:none;font-family:Almendra;-inkscape-font-specification:Almendra Bold"
       x="93.331932"
       y="1023.209"
       id="text5761"
       sodipodi:linespacing="125%"><tspan
         sodipodi:role="line"
         id="tspan5763"
         x="93.331932"
         y="1023.209"
         style="font-size:144px;font-weight:bold;text-align:center;text-anchor:middle;fill:#000000;fill-opacity:1;-inkscape-font-specification:Almendra Bold">Social Strategy</tspan></text>
    <path
       style="fill:#edc951;stroke:#000000;stroke-width:1px;stroke-linecap:butt;stroke-linejoin:miter;stroke-opacity:1;fill-opacity:1;opacity:0.5"
       d="m 42.629956,833.69997 c -2.413016,57.91239 17.695453,163.28077 17.695453,163.28077 l 1081.835691,6.43476 c 12.8694,-18.49979 21.7171,-170.51987 21.7171,-170.51987 z"
       id="path3939"
       inkscape:connector-curvature="0"
       transform="translate(-515.44516,66.879671)"
       sodipodi:nodetypes="ccccc" />
  </g>
</svg>
